<?xml version="1.0" encoding="UTF-8" standalone="no"?>
<!-- Created with Inkscape (http://www.inkscape.org/) -->

<svg
   xmlns:dc="http://purl.org/dc/elements/1.1/"
   xmlns:cc="http://creativecommons.org/ns#"
   xmlns:rdf="http://www.w3.org/1999/02/22-rdf-syntax-ns#"
   xmlns:svg="http://www.w3.org/2000/svg"
   xmlns="http://www.w3.org/2000/svg"
   xmlns:xlink="http://www.w3.org/1999/xlink"
   xmlns:sodipodi="http://sodipodi.sourceforge.net/DTD/sodipodi-0.dtd"
   xmlns:inkscape="http://www.inkscape.org/namespaces/inkscape"
   width="163.95473mm"
   height="144.01901mm"
   viewBox="0 0 580.94195 510.30359"
   id="svg6143"
   version="1.1"
   inkscape:version="0.91 r13725"
   sodipodi:docname="MyTakeDotOrgLogo.svg">
  <defs
     id="defs6145">
    <linearGradient
       inkscape:collect="always"
       xlink:href="#linearGradient480"
       id="linearGradient6158"
       gradientUnits="userSpaceOnUse"
       gradientTransform="matrix(-2.17e-5,-496.10736,-496.10736,2.17e-5,405.14404,741.8833)"
       spreadMethod="pad"
       x1="0"
       y1="0"
       x2="0.83020478"
       y2="-3.6313601e-08" />
    <linearGradient
       x1="0"
       y1="0"
       x2="1"
       y2="0"
       gradientUnits="userSpaceOnUse"
       gradientTransform="matrix(-2.17e-5,-496.10736,-496.10736,2.17e-5,405.14404,741.8833)"
       spreadMethod="pad"
       id="linearGradient480">
      <stop
         style="stop-opacity:1;stop-color:#90592f"
         offset="0"
         id="stop482" />
      <stop
         style="stop-opacity:1;stop-color:#b98733"
         offset="0.16888295"
         id="stop484" />
      <stop
         style="stop-opacity:1;stop-color:#b98733"
         offset="0.496933"
         id="stop486" />
      <stop
         style="stop-opacity:1;stop-color:#b98733"
         offset="0.89461255"
         id="stop488" />
      <stop
         style="stop-opacity:1;stop-color:#90592f"
         offset="1"
         id="stop490" />
    </linearGradient>
  </defs>
  <sodipodi:namedview
     id="base"
     pagecolor="#ffffff"
     bordercolor="#666666"
     borderopacity="1.0"
     inkscape:pageopacity="0.0"
     inkscape:pageshadow="2"
     inkscape:zoom="1.6102729"
     inkscape:cx="354.78051"
     inkscape:cy="50.443814"
     inkscape:document-units="px"
     inkscape:current-layer="layer1"
     showgrid="false"
     fit-margin-top="0"
     fit-margin-left="0"
     fit-margin-right="0"
     fit-margin-bottom="0"
     inkscape:window-width="1440"
     inkscape:window-height="851"
     inkscape:window-x="0"
     inkscape:window-y="1"
     inkscape:window-maximized="1" />
  <metadata
     id="metadata6148">
    <rdf:RDF>
      <cc:Work
         rdf:about="">
        <dc:format>image/svg+xml</dc:format>
        <dc:type
           rdf:resource="http://purl.org/dc/dcmitype/StillImage" />
        <dc:title />
      </cc:Work>
    </rdf:RDF>
  </metadata>
  <g
     inkscape:label="Layer 1"
     inkscape:groupmode="layer"
     id="layer1"
     transform="translate(255.74768,-72.502409)">
    <g
       id="g4621">
      <g
         transform="matrix(1.0821929,0,0,-1.0821929,119.09738,166.69348)"
         id="g5687">
        <path
           inkscape:connector-curvature="0"
           id="path5692"
           style="fill:#0c4d9c;fill-opacity:1;fill-rule:nonzero;stroke:none"
           d="M 0,0 C 0,0 -4.974,21.339 20.713,25.689 20.713,25.689 25.896,0 0,0" />
      </g>
      <g
         transform="matrix(1.0821929,0,0,-1.0821929,114.53825,180.71348)"
         id="g5694">
        <path
           inkscape:connector-curvature="0"
           id="path5696"
           style="fill:#4d8bc9;fill-opacity:1;fill-rule:nonzero;stroke:none"
           d="M 0,0 C 0,0 12.003,18.323 32.882,2.74 32.882,2.74 17.874,-18.743 0,0" />
      </g>
      <g
         transform="matrix(1.0821929,0,0,-1.0821929,129.25138,288.35673)"
         id="g5698">
        <path
           inkscape:connector-curvature="0"
           id="path5700"
           style="fill:#0c4d9c;fill-opacity:1;fill-rule:nonzero;stroke:none"
           d="M 0,0 C 0,0 3.598,17.939 24.629,12.365 24.629,12.365 19.691,-8.955 0,0" />
      </g>
      <g
         transform="matrix(1.0821929,0,0,-1.0821929,100.25525,175.72673)"
         id="g5702">
        <path
           inkscape:connector-curvature="0"
           id="path5704"
           style="fill:#ac1419;fill-opacity:1;fill-rule:nonzero;stroke:none"
           d="M 0,0 C 0,0 -15.999,14.96 2.925,32.871 2.925,32.871 21.523,14.407 0,0" />
      </g>
      <g
         transform="matrix(1.0821929,0,0,-1.0821929,115.353,146.0061)"
         id="g5706">
        <path
           inkscape:connector-curvature="0"
           id="path5708"
           style="fill:#4d8bc9;fill-opacity:1;fill-rule:nonzero;stroke:none"
           d="M 0,0 C 0,0 -9.107,8.506 1.657,18.692 1.657,18.692 12.241,8.195 0,0" />
      </g>
      <g
         transform="matrix(1.0821929,0,0,-1.0821929,139.03662,165.23973)"
         id="g5710">
        <path
           inkscape:connector-curvature="0"
           id="path5712"
           style="fill:#db1f26;fill-opacity:1;fill-rule:nonzero;stroke:none"
           d="M 0,0 C 0,0 7.877,9.661 18.772,-0.376 18.772,-0.376 9.021,-11.656 0,0" />
      </g>
      <g
         transform="matrix(1.0821929,0,0,-1.0821929,83.747625,190.1186)"
         id="g5714">
        <path
           inkscape:connector-curvature="0"
           id="path5716"
           style="fill:#0c4d9c;fill-opacity:1;fill-rule:nonzero;stroke:none"
           d="M 0,0 C 0,0 -14.812,9.719 -2.193,26.591 -2.193,26.591 15.167,14.439 0,0" />
      </g>
      <g
         transform="matrix(1.0821929,0,0,-1.0821929,100.624,195.55185)"
         id="g5718">
        <path
           inkscape:connector-curvature="0"
           id="path5720"
           style="fill:#db1f26;fill-opacity:1;fill-rule:nonzero;stroke:none"
           d="M 0,0 C 0,0 9.085,9.78 20.031,-1.72 20.031,-1.72 8.817,-13.082 0,0" />
      </g>
      <g
         transform="matrix(1.0821929,0,0,-1.0821929,67.193375,107.90635)"
         id="g5722">
        <path
           inkscape:connector-curvature="0"
           id="path5724"
           style="fill:#db1f26;fill-opacity:1;fill-rule:nonzero;stroke:none"
           d="M 0,0 C 0,0 -18.475,11.63 -3.33,32.715 -3.33,32.715 18.353,18.153 0,0" />
      </g>
      <g
         transform="matrix(1.0821929,0,0,-1.0821929,73.930625,120.67285)"
         id="g5726">
        <path
           inkscape:connector-curvature="0"
           id="path5728"
           style="fill:#ac1419;fill-opacity:1;fill-rule:nonzero;stroke:none"
           d="M 0,0 C 0,0 -5.241,21.19 20.3,25.867 20.3,25.867 25.81,0.344 0,0" />
      </g>
      <g
         transform="matrix(1.0821929,0,0,-1.0821929,15.211125,153.30773)"
         id="g5730">
        <path
           inkscape:connector-curvature="0"
           id="path5732"
           style="fill:#ac1419;fill-opacity:1;fill-rule:nonzero;stroke:none"
           d="M 0,0 C 0,0 -18.048,-3.001 -20.292,18.649 -20.292,18.649 1.39,21.588 0,0" />
      </g>
      <g
         transform="matrix(1.0821929,0,0,-1.0821929,19.097,122.18523)"
         id="g5734">
        <path
           inkscape:connector-curvature="0"
           id="path5736"
           style="fill:#0c4d9c;fill-opacity:1;fill-rule:nonzero;stroke:none"
           d="M 0,0 C 0,0 -13.951,11.844 1.129,27.54 1.129,27.54 17.375,12.886 0,0" />
      </g>
      <g
         transform="matrix(1.0821929,0,0,-1.0821929,2.644375,123.67735)"
         id="g5738">
        <path
           inkscape:connector-curvature="0"
           id="path5740"
           style="fill:#4d8bc9;fill-opacity:1;fill-rule:nonzero;stroke:none"
           d="m 0,0 c 0,0 -14.458,-6.53 -21.154,11.113 0,0 17.512,7.283 21.154,-11.113" />
      </g>
      <g
         transform="matrix(1.0821929,0,0,-1.0821929,7.7135,112.77198)"
         id="g5742">
        <path
           inkscape:connector-curvature="0"
           id="path5744"
           style="fill:#ac1419;fill-opacity:1;fill-rule:nonzero;stroke:none"
           d="M 0,0 C 0,0 -17.933,3.67 -12.257,24.687 -12.257,24.687 9.035,19.659 0,0" />
      </g>
      <g
         transform="matrix(1.0821929,0,0,-1.0821929,60.220375,120.48898)"
         id="g5746">
        <path
           inkscape:connector-curvature="0"
           id="path5748"
           style="fill:#0c4d9c;fill-opacity:1;fill-rule:nonzero;stroke:none"
           d="M 0,0 C 0,0 -21.776,-1.542 -22.022,24.419 -22.022,24.419 4.076,25.483 0,0" />
      </g>
      <g
         transform="matrix(1.0821929,0,0,-1.0821929,29.963375,149.44185)"
         id="g5750">
        <path
           inkscape:connector-curvature="0"
           id="path5752"
           style="fill:#db1f26;fill-opacity:1;fill-rule:nonzero;stroke:none"
           d="M 0,0 C 0,0 -14.248,11.486 0.42,27.558 0.42,27.558 17.049,13.317 0,0" />
      </g>
      <g
         transform="matrix(1.0821929,0,0,-1.0821929,53.012875,91.312975)"
         id="g5754">
        <path
           inkscape:connector-curvature="0"
           id="path5756"
           style="fill:#ac1419;fill-opacity:1;fill-rule:nonzero;stroke:none"
           d="m 0,0 c 0,0 -12.373,-0.876 -12.524,13.893 0,0 14.84,0.601 12.524,-13.893" />
      </g>
      <g
         transform="matrix(1.0821929,0,0,-1.0821929,83.238125,90.1141)"
         id="g5758">
        <path
           inkscape:connector-curvature="0"
           id="path5760"
           style="fill:#4d8bc9;fill-opacity:1;fill-rule:nonzero;stroke:none"
           d="M 0,0 C 0,0 -1.715,12.3 13.003,13.447 13.003,13.447 14.624,-1.314 0,0" />
      </g>
      <g
         transform="matrix(1.0821929,0,0,-1.0821929,60.902,140.37685)"
         id="g5762">
        <path
           inkscape:connector-curvature="0"
           id="path5764"
           style="fill:#ac1419;fill-opacity:1;fill-rule:nonzero;stroke:none"
           d="m 0,0 c 0,0 -17.136,-4.225 -20.9,16.423 0,0 20.647,4.438 20.9,-16.423" />
      </g>
      <g
         transform="matrix(1.0821929,0,0,-1.0821929,28.302625,178.56648)"
         id="g5766">
        <path
           inkscape:connector-curvature="0"
           id="path5768"
           style="fill:#0c4d9c;fill-opacity:1;fill-rule:nonzero;stroke:none"
           d="m 0,0 c 0,0 -14.363,-3.541 -17.52,13.766 0,0 17.303,3.717 17.52,-13.766" />
      </g>
      <g
         transform="matrix(1.0821929,0,0,-1.0821929,5.597625,243.5076)"
         id="g5770">
        <path
           inkscape:connector-curvature="0"
           id="path5772"
           style="fill:#ac1419;fill-opacity:1;fill-rule:nonzero;stroke:none"
           d="M 0,0 C 0,0 0.485,16.644 20.206,14.859 20.206,14.859 19.033,-5.024 0,0" />
      </g>
      <g
         transform="matrix(1.0821929,0,0,-1.0821929,40.43025,180.1221)"
         id="g5774">
        <path
           inkscape:connector-curvature="0"
           id="path5776"
           style="fill:#4d8bc9;fill-opacity:1;fill-rule:nonzero;stroke:none"
           d="M 0,0 C 0,0 -14.399,14.99 4.445,30.997 4.445,30.997 21.132,12.55 0,0" />
      </g>
      <g
         transform="matrix(1.0821929,0,0,-1.0821929,-85.032875,213.99085)"
         id="g5778">
        <path
           inkscape:connector-curvature="0"
           id="path5780"
           style="fill:#0c4d9c;fill-opacity:1;fill-rule:nonzero;stroke:none"
           d="m 0,0 c 0,0 -16.882,-15.253 -33.75,5.896 0,0 20.719,17.625 33.75,-5.896" />
      </g>
      <g
         transform="matrix(1.0821929,0,0,-1.0821929,-107.2595,337.10348)"
         id="g5782">
        <path
           inkscape:connector-curvature="0"
           id="path5784"
           style="fill:#0c4d9c;fill-opacity:1;fill-rule:nonzero;stroke:none"
           d="M 0,0 C 0,0 -13.581,-12.271 -27.155,4.742 -27.155,4.742 -10.483,18.92 0,0" />
      </g>
      <g
         transform="matrix(1.0821929,0,0,-1.0821929,-116.49625,274.90485)"
         id="g5786">
        <path
           inkscape:connector-curvature="0"
           id="path5788"
           style="fill:#4d8bc9;fill-opacity:1;fill-rule:nonzero;stroke:none"
           d="m 0,0 c 0,0 -4.069,-21.396 -29.168,-15.007 0,0 5.632,25.425 29.168,15.007" />
      </g>
      <g
         transform="matrix(1.0821929,0,0,-1.0821929,-21.557,207.51935)"
         id="g5790">
        <path
           inkscape:connector-curvature="0"
           id="path5792"
           style="fill:#4d8bc9;fill-opacity:1;fill-rule:nonzero;stroke:none"
           d="m 0,0 c 0,0 -16.918,-6.976 -23.963,13.614 0,0 20.474,7.732 23.963,-13.614" />
      </g>
      <g
         transform="matrix(1.0821929,0,0,-1.0821929,-15.1405,180.83073)"
         id="g5794">
        <path
           inkscape:connector-curvature="0"
           id="path5796"
           style="fill:#4d8bc9;fill-opacity:1;fill-rule:nonzero;stroke:none"
           d="M 0,0 C 0,0 -8.514,16.195 11.337,25.121 11.337,25.121 20.93,5.451 0,0" />
      </g>
      <g
         transform="matrix(1.0821929,0,0,-1.0821929,-101.9785,181.3676)"
         id="g5798">
        <path
           inkscape:connector-curvature="0"
           id="path5800"
           style="fill:#ac1419;fill-opacity:1;fill-rule:nonzero;stroke:none"
           d="M 0,0 C 0,0 -22.544,3.037 -17.303,29.577 -17.303,29.577 9.542,25.143 0,0" />
      </g>
      <g
         transform="matrix(1.0821929,0,0,-1.0821929,-115.9715,255.90573)"
         id="g5803">
        <path
           inkscape:connector-curvature="0"
           id="path5805"
           style="fill:#db1f26;fill-opacity:1;fill-rule:nonzero;stroke:none"
           d="M 0,0 C 0,0 -17.005,6.751 -7.761,26.45 -7.761,26.45 12.336,17.773 0,0" />
      </g>
      <g
         transform="matrix(1.0821929,0,0,-1.0821929,-113.676,193.93435)"
         id="g5807">
        <path
           inkscape:connector-curvature="0"
           id="path5809"
           style="fill:#db1f26;fill-opacity:1;fill-rule:nonzero;stroke:none"
           d="m 0,0 c 0,0 -10.75,-16.531 -29.595,-2.57 0,0 13.444,19.377 29.595,2.57" />
      </g>
      <g
         transform="matrix(1.0821929,0,0,-1.0821929,-129.68962,263.02347)"
         id="g5811">
        <path
           inkscape:connector-curvature="0"
           id="path5813"
           style="fill:#ac1419;fill-opacity:1;fill-rule:nonzero;stroke:none"
           d="m 0,0 c 0,0 -8.651,-13.299 -23.811,-2.067 0,0 10.816,15.587 23.811,2.067" />
      </g>
      <g
         transform="matrix(1.0821929,0,0,-1.0821929,-123.64937,179.2756)"
         id="g5815">
        <path
           inkscape:connector-curvature="0"
           id="path5817"
           style="fill:#0c4d9c;fill-opacity:1;fill-rule:nonzero;stroke:none"
           d="m 0,0 c 0,0 -21.219,-8.181 -29.393,17.614 0,0 25.658,9.024 29.393,-17.614" />
      </g>
      <g
         transform="matrix(1.0821929,0,0,-1.0821929,-25.043,164.18622)"
         id="g5819">
        <path
           inkscape:connector-curvature="0"
           id="path5821"
           style="fill:#db1f26;fill-opacity:1;fill-rule:nonzero;stroke:none"
           d="M 0,0 C 0,0 -17.969,-3.439 -20.742,18.142 -20.742,18.142 0.869,21.617 0,0" />
      </g>
      <g
         transform="matrix(1.0821929,0,0,-1.0821929,-76.36,196.30423)"
         id="g5823">
        <path
           inkscape:connector-curvature="0"
           id="path5825"
           style="fill:#4d8bc9;fill-opacity:1;fill-rule:nonzero;stroke:none"
           d="M 0,0 C 0,0 -22.602,2.461 -18.041,29.118 -18.041,29.118 8.912,25.375 0,0" />
      </g>
      <g
         transform="matrix(1.0821929,0,0,-1.0821929,-21.697625,279.76635)"
         id="g5827">
        <path
           inkscape:connector-curvature="0"
           id="path5829"
           style="fill:#4d8bc9;fill-opacity:1;fill-rule:nonzero;stroke:none"
           d="m 0,0 c 0,0 -7.87,-16.51 -26.902,-5.961 0,0 10.005,19.467 26.902,5.961" />
      </g>
      <g
         transform="matrix(1.0821929,0,0,-1.0821929,-104.3685,273.31435)"
         id="g5831">
        <path
           inkscape:connector-curvature="0"
           id="path5833"
           style="fill:#0c4d9c;fill-opacity:1;fill-rule:nonzero;stroke:none"
           d="M 0,0 C 0,0 -11.706,17.418 9.817,30.055 9.817,30.055 23.21,8.811 0,0" />
      </g>
      <g
         transform="matrix(1.0821929,0,0,-1.0821929,-9.146625,207.57435)"
         id="g5835">
        <path
           inkscape:connector-curvature="0"
           id="path5837"
           style="fill:#db1f26;fill-opacity:1;fill-rule:nonzero;stroke:none"
           d="M 0,0 C 0,0 -6.921,18.494 15.529,25.367 15.529,25.367 23.159,2.997 0,0" />
      </g>
      <g
         transform="matrix(1.0821929,0,0,-1.0821929,-19.94275,151.07098)"
         id="g5839">
        <path
           inkscape:connector-curvature="0"
           id="path5841"
           style="fill:#0c4d9c;fill-opacity:1;fill-rule:nonzero;stroke:none"
           d="M 0,0 C 0,0 -15.746,5.766 -7.768,24.068 -7.768,24.068 10.881,16.596 0,0" />
      </g>
      <g
         transform="matrix(1.0821929,0,0,-1.0821929,4.54825,225.62122)"
         id="g5843">
        <path
           inkscape:connector-curvature="0"
           id="path5845"
           style="fill:#0c4d9c;fill-opacity:1;fill-rule:nonzero;stroke:none"
           d="M 0,0 C 0,0 -8.101,14.682 9.933,23.261 9.933,23.261 19.105,5.386 0,0" />
      </g>
      <g
         transform="matrix(1.0821929,0,0,-1.0821929,-132.886,248.79223)"
         id="g5847">
        <path
           inkscape:connector-curvature="0"
           id="path5849"
           style="fill:#4d8bc9;fill-opacity:1;fill-rule:nonzero;stroke:none"
           d="m 0,0 c 0,0 -21.285,-5.343 -26.106,20.333 0,0 25.671,5.635 26.106,-20.333" />
      </g>
      <g
         transform="matrix(1.0821929,0,0,-1.0821929,-25.873625,189.20235)"
         id="g5851">
        <path
           inkscape:connector-curvature="0"
           id="path5853"
           style="fill:#ac1419;fill-opacity:1;fill-rule:nonzero;stroke:none"
           d="M 0,0 C 0,0 -14.769,0.598 -12.98,18.096 -12.98,18.096 4.669,16.847 0,0" />
      </g>
      <g
         transform="matrix(1.0821929,0,0,-1.0821929,-55.629125,236.46798)"
         id="g5855">
        <path
           inkscape:connector-curvature="0"
           id="path5857"
           style="fill:#ac1419;fill-opacity:1;fill-rule:nonzero;stroke:none"
           d="m 0,0 c 0,0 -12.662,-13.346 -27.576,2.646 0,0 15.609,15.503 27.576,-2.646" />
      </g>
      <g
         transform="matrix(1.0821929,0,0,-1.0821929,-107.2595,309.17723)"
         id="g5859">
        <path
           inkscape:connector-curvature="0"
           id="path5861"
           style="fill:#db1f26;fill-opacity:1;fill-rule:nonzero;stroke:none"
           d="m 0,0 c 0,0 -14.428,-15.207 -31.419,3.012 0,0 17.787,17.664 31.419,-3.012" />
      </g>
      <g
         transform="matrix(1.0821929,0,0,-1.0821929,-56.726125,211.6521)"
         id="g5863">
        <path
           inkscape:connector-curvature="0"
           id="path5865"
           style="fill:#db1f26;fill-opacity:1;fill-rule:nonzero;stroke:none"
           d="M 0,0 C 0,0 -20.018,8.26 -8.76,31.427 -8.76,31.427 14.899,20.832 0,0" />
      </g>
      <g
         transform="matrix(1.0821929,0,0,-1.0821929,-90.094,315.43685)"
         id="g5867">
        <path
           inkscape:connector-curvature="0"
           id="path5869"
           style="fill:#4d8bc9;fill-opacity:1;fill-rule:nonzero;stroke:none"
           d="M 0,0 C 0,0 -0.086,17.422 20.597,16.267 20.597,16.267 20.09,-4.583 0,0" />
      </g>
      <g
         transform="matrix(1.0821929,0,0,-1.0821929,-95.750125,296.18735)"
         id="g5871">
        <path
           inkscape:connector-curvature="0"
           id="path5873"
           style="fill:#ac1419;fill-opacity:1;fill-rule:nonzero;stroke:none"
           d="M 0,0 C 0,0 -4.228,16.897 16.144,20.69 16.144,20.69 20.604,0.318 0,0" />
      </g>
      <g
         transform="matrix(1.0821929,0,0,-1.0821929,-208.21575,302.61535)"
         id="g5880">
        <path
           inkscape:connector-curvature="0"
           id="path5882"
           style="fill:#db1f26;fill-opacity:1;fill-rule:nonzero;stroke:none"
           d="m 0,0 c 0,0 -20.032,-7.526 -27.503,16.792 0,0 24.202,8.282 27.503,-16.792" />
      </g>
      <g
         transform="matrix(1.0821929,0,0,-1.0821929,-175.5925,346.56373)"
         id="g5884">
        <path
           inkscape:connector-curvature="0"
           id="path5886"
           style="fill:#db1f26;fill-opacity:1;fill-rule:nonzero;stroke:none"
           d="m 0,0 c 0,0 -15.065,-18.062 -35.409,1.129 0,0 18.642,21.042 35.409,-1.129" />
      </g>
      <g
         transform="matrix(1.0821929,0,0,-1.0821929,-201.525,272.7891)"
         id="g5890">
        <path
           inkscape:connector-curvature="0"
           id="path5904"
           style="fill:#db1f26;fill-opacity:1;fill-rule:nonzero;stroke:none"
           d="M 0,0 C 0,0 -13.039,16.958 8.043,31.199 8.043,31.199 23.021,10.464 0,0" />
      </g>
      <g
         transform="matrix(1.0821929,0,0,-1.0821929,-163.0575,334.09472)"
         id="g5906">
        <path
           inkscape:connector-curvature="0"
           id="path5908"
           style="fill:#ac1419;fill-opacity:1;fill-rule:nonzero;stroke:none"
           d="M 0,0 C 0,0 -11.156,14.508 6.878,26.688 6.878,26.688 19.692,8.952 0,0" />
      </g>
      <g
         transform="matrix(1.0821929,0,0,-1.0821929,-82.729375,348.92198)"
         id="g5910">
        <path
           inkscape:connector-curvature="0"
           id="path5912"
           style="fill:#db1f26;fill-opacity:1;fill-rule:nonzero;stroke:none"
           d="M 0,0 C 0,0 -5.256,20.036 18.91,24.803 18.91,24.803 24.47,0.67 0,0" />
      </g>
      <g
         transform="matrix(1.0821929,0,0,-1.0821929,-13.980625,304.05698)"
         id="g5916">
        <path
           inkscape:connector-curvature="0"
           id="path5918"
           style="fill:#ac1419;fill-opacity:1;fill-rule:nonzero;stroke:none"
           d="m 0,0 c 0,0 -14.161,-15.12 -31.065,2.798 0,0 17.462,17.559 31.065,-2.798" />
      </g>
      <g
         transform="matrix(1.0821929,0,0,-1.0821929,-220.10088,273.28273)"
         id="g5920">
        <path
           inkscape:connector-curvature="0"
           id="path5922"
           style="fill:#4d8bc9;fill-opacity:1;fill-rule:nonzero;stroke:none"
           d="M 0,0 C 0,0 -18.128,-3.91 -21.458,17.889 -21.458,17.889 0.354,21.917 0,0" />
      </g>
      <g
         transform="matrix(1.0821929,0,0,-1.0821929,-212.82238,264.0301)"
         id="g5924">
        <path
           inkscape:connector-curvature="0"
           id="path5926"
           style="fill:#0c4d9c;fill-opacity:1;fill-rule:nonzero;stroke:none"
           d="M 0,0 C 0,0 -22.769,9.998 -9.245,36.306 -9.245,36.306 17.614,23.55 0,0" />
      </g>
      <g
         transform="matrix(1.0821929,0,0,-1.0821929,-192.02937,299.29748)"
         id="g5928">
        <path
           inkscape:connector-curvature="0"
           id="path5930"
           style="fill:#ac1419;fill-opacity:1;fill-rule:nonzero;stroke:none"
           d="M 0,0 C 0,0 -13.451,16.622 7.254,31.391 7.254,31.391 22.761,11.037 0,0" />
      </g>
      <g
         transform="matrix(1.0821929,0,0,-1.0821929,-198.10925,324.86598)"
         id="g5932">
        <path
           inkscape:connector-curvature="0"
           id="path5934"
           style="fill:#0c4d9c;fill-opacity:1;fill-rule:nonzero;stroke:none"
           d="M 0,0 C 0,0 -12.792,-11.656 -25.679,4.369 -25.679,4.369 -9.983,17.838 0,0" />
      </g>
      <g
         transform="matrix(1.0821929,0,0,-1.0821929,-180.63038,320.78398)"
         id="g5936">
        <path
           inkscape:connector-curvature="0"
           id="path5938"
           style="fill:#4d8bc9;fill-opacity:1;fill-rule:nonzero;stroke:none"
           d="M 0,0 C 0,0 -10.707,17.317 10.635,28.777 10.635,28.777 22.833,7.674 0,0" />
      </g>
      <g
         transform="matrix(1.0821929,0,0,-1.0821929,-175.5925,414.47385)"
         id="g5940">
        <path
           inkscape:connector-curvature="0"
           id="path5942"
           style="fill:#4d8bc9;fill-opacity:1;fill-rule:nonzero;stroke:none"
           d="m 0,0 c 0,0 -6.429,-20.216 -29.964,-11.102 0,0 8.419,23.927 29.964,11.102" />
      </g>
      <g
         transform="matrix(1.0821929,0,0,-1.0821929,-193.808,389.0821)"
         id="g5944">
        <path
           inkscape:connector-curvature="0"
           id="path5946"
           style="fill:#ac1419;fill-opacity:1;fill-rule:nonzero;stroke:none"
           d="M 0,0 C 0,0 -21.212,0.268 -19.351,25.422 -19.351,25.422 5.994,24.354 0,0" />
      </g>
      <g
         transform="matrix(1.0821929,0,0,-1.0821929,-202.87237,403.89723)"
         id="g5948">
        <path
           inkscape:connector-curvature="0"
           id="path5950"
           style="fill:#0c4d9c;fill-opacity:1;fill-rule:nonzero;stroke:none"
           d="m 0,0 c 0,0 -8.087,-16.514 -27.105,-5.719 0,0 10.258,19.452 27.105,5.719" />
      </g>
      <g
         transform="matrix(1.0821929,0,0,-1.0821929,-216.81038,386.65348)"
         id="g5952">
        <path
           inkscape:connector-curvature="0"
           id="path5954"
           style="fill:#4d8bc9;fill-opacity:1;fill-rule:nonzero;stroke:none"
           d="M 0,0 C 0,0 -23.072,-12.296 -35.98,15.992 -35.98,15.992 -7.978,29.86 0,0" />
      </g>
      <g
         transform="matrix(1.0821929,0,0,-1.0821929,-166.19888,400.88473)"
         id="g5956">
        <path
           inkscape:connector-curvature="0"
           id="path5958"
           style="fill:#0c4d9c;fill-opacity:1;fill-rule:nonzero;stroke:none"
           d="M 0,0 C 0,0 -21.197,-0.275 -19.988,24.911 -19.988,24.911 5.379,24.499 0,0" />
      </g>
      <g
         transform="matrix(1.0821929,0,0,-1.0821929,-148.60275,416.39323)"
         id="g5960">
        <path
           inkscape:connector-curvature="0"
           id="path5962"
           style="fill:#ac1419;fill-opacity:1;fill-rule:nonzero;stroke:none"
           d="m 0,0 c 0,0 1.224,-17.107 -19.163,-17.31 0,0 -0.847,20.495 19.163,17.31" />
      </g>
      <g
         transform="matrix(1.0821929,0,0,-1.0821929,-145.06912,401.44485)"
         id="g5964">
        <path
           inkscape:connector-curvature="0"
           id="path5966"
           style="fill:#db1f26;fill-opacity:1;fill-rule:nonzero;stroke:none"
           d="M 0,0 C 0,0 -20.061,2.295 -15.883,25.943 -15.883,25.943 8.036,22.493 0,0" />
      </g>
      <g
         transform="matrix(1.0821929,0,0,-1.0821929,189.58587,254.6011)"
         id="g5968">
        <path
           inkscape:connector-curvature="0"
           id="path5970"
           style="fill:#db1f26;fill-opacity:1;fill-rule:nonzero;stroke:none"
           d="M 0,0 C 0,0 -22.732,-0.376 -21.509,26.634 -21.509,26.634 5.668,26.265 0,0" />
      </g>
      <g
         transform="matrix(1.0821929,0,0,-1.0821929,93.400625,279.78585)"
         id="g5972">
        <path
           inkscape:connector-curvature="0"
           id="path5974"
           style="fill:#4d8bc9;fill-opacity:1;fill-rule:nonzero;stroke:none"
           d="M 0,0 C 0,0 -21.922,-0.362 -20.742,25.686 -20.742,25.686 5.466,25.324 0,0" />
      </g>
      <g
         transform="matrix(1.0821929,0,0,-1.0821929,206.59438,227.4231)"
         id="g5976">
        <path
           inkscape:connector-curvature="0"
           id="path5978"
           style="fill:#4d8bc9;fill-opacity:1;fill-rule:nonzero;stroke:none"
           d="M 0,0 C 0,0 -6.979,21.632 19.206,28.332 19.206,28.332 26.779,2.233 0,0" />
      </g>
      <g
         transform="matrix(1.0821929,0,0,-1.0821929,141.05838,261.85622)"
         id="g5980">
        <path
           inkscape:connector-curvature="0"
           id="path5982"
           style="fill:#ac1419;fill-opacity:1;fill-rule:nonzero;stroke:none"
           d="M 0,0 C 0,0 -6.632,20.567 18.265,26.938 18.265,26.938 25.461,2.125 0,0" />
      </g>
      <g
         transform="matrix(1.0821929,0,0,-1.0821929,155.223,305.52598)"
         id="g5984">
        <path
           inkscape:connector-curvature="0"
           id="path5986"
           style="fill:#ac1419;fill-opacity:1;fill-rule:nonzero;stroke:none"
           d="M 0,0 C 0,0 -5.618,17.418 15.471,22.812 15.471,22.812 21.566,1.799 0,0" />
      </g>
      <g
         transform="matrix(1.0821929,0,0,-1.0821929,185.91125,221.41773)"
         id="g5988">
        <path
           inkscape:connector-curvature="0"
           id="path5990"
           style="fill:#0c4d9c;fill-opacity:1;fill-rule:nonzero;stroke:none"
           d="M 0,0 C 0,0 -19.532,2.573 -15.073,25.581 -15.073,25.581 8.188,21.802 0,0" />
      </g>
      <g
         transform="matrix(1.0821929,0,0,-1.0821929,100.88188,252.3136)"
         id="g5992">
        <path
           inkscape:connector-curvature="0"
           id="path5994"
           style="fill:#ac1419;fill-opacity:1;fill-rule:nonzero;stroke:none"
           d="M 0,0 C 0,0 -18.83,2.483 -14.529,24.665 -14.529,24.665 7.898,21.023 0,0" />
      </g>
      <g
         transform="matrix(1.0821929,0,0,-1.0821929,129.58,252.03148)"
         id="g5996">
        <path
           inkscape:connector-curvature="0"
           id="path5998"
           style="fill:#0c4d9c;fill-opacity:1;fill-rule:nonzero;stroke:none"
           d="M 0,0 C 0,0 -18.569,2.45 -14.327,24.325 -14.327,24.325 7.79,20.734 0,0" />
      </g>
      <g
         transform="matrix(1.0821929,0,0,-1.0821929,173.46175,316.01647)"
         id="g6000">
        <path
           inkscape:connector-curvature="0"
           id="path6002"
           style="fill:#0c4d9c;fill-opacity:1;fill-rule:nonzero;stroke:none"
           d="m 0,0 c 0,0 -8.043,-15.677 -26.077,-4.995 0,0 10.179,18.457 26.077,4.995" />
      </g>
      <g
         transform="matrix(1.0821929,0,0,-1.0821929,196.76163,208.99623)"
         id="g6004">
        <path
           inkscape:connector-curvature="0"
           id="path6006"
           style="fill:#db1f26;fill-opacity:1;fill-rule:nonzero;stroke:none"
           d="M 0,0 C 0,0 -16.514,15.608 3.215,34.084 3.215,34.084 22.399,14.848 0,0" />
      </g>
      <g
         transform="matrix(1.0821929,0,0,-1.0821929,139.83563,237.98398)"
         id="g6008">
        <path
           inkscape:connector-curvature="0"
           id="path6010"
           style="fill:#4d8bc9;fill-opacity:1;fill-rule:nonzero;stroke:none"
           d="M 0,0 C 0,0 -15.702,14.841 3.056,32.411 3.056,32.411 21.299,14.121 0,0" />
      </g>
      <g
         transform="matrix(1.0821929,0,0,-1.0821929,203.97762,259.47048)"
         id="g6012">
        <path
           inkscape:connector-curvature="0"
           id="path6014"
           style="fill:#ac1419;fill-opacity:1;fill-rule:nonzero;stroke:none"
           d="M 0,0 C 0,0 -7.522,21.44 18.476,28.813 18.476,28.813 26.721,2.899 0,0" />
      </g>
      <g
         transform="matrix(1.0821929,0,0,-1.0821929,186.29488,341.5221)"
         id="g6016">
        <path
           inkscape:connector-curvature="0"
           id="path6018"
           style="fill:#4d8bc9;fill-opacity:1;fill-rule:nonzero;stroke:none"
           d="M 0,0 C 0,0 7.5,19.956 30.652,9.628 30.652,9.628 20.987,-13.994 0,0" />
      </g>
      <g
         transform="matrix(1.0821929,0,0,-1.0821929,195.31275,308.5031)"
         id="g6020">
        <path
           inkscape:connector-curvature="0"
           id="path6022"
           style="fill:#db1f26;fill-opacity:1;fill-rule:nonzero;stroke:none"
           d="M 0,0 C 0,0 14.022,22.913 40.201,4.608 40.201,4.608 22.623,-22.309 0,0" />
      </g>
      <g
         transform="matrix(1.0821929,0,0,-1.0821929,189.75812,274.97885)"
         id="g6024">
        <path
           inkscape:connector-curvature="0"
           id="path6026"
           style="fill:#4d8bc9;fill-opacity:1;fill-rule:nonzero;stroke:none"
           d="m 0,0 c 0,0 -16.955,-7.081 -24.115,13.549 0,0 20.516,7.858 24.115,-13.549" />
      </g>
      <g
         transform="matrix(1.0821929,0,0,-1.0821929,96.07125,299.72073)"
         id="g6028">
        <path
           inkscape:connector-curvature="0"
           id="path6030"
           style="fill:#0c4d9c;fill-opacity:1;fill-rule:nonzero;stroke:none"
           d="M 0,0 C 0,0 -16.347,-6.827 -23.253,13.064 -23.253,13.064 -3.468,20.64 0,0" />
      </g>
      <g
         transform="matrix(1.0821929,0,0,-1.0821929,153.76562,343.88035)"
         id="g6032">
        <path
           inkscape:connector-curvature="0"
           id="path6034"
           style="fill:#4d8bc9;fill-opacity:1;fill-rule:nonzero;stroke:none"
           d="m 0,0 c 0,0 -17.99,-7.511 -25.592,14.378 0,0 21.77,8.336 25.592,-14.378" />
      </g>
      <g
         transform="matrix(1.0821929,0,0,-1.0821929,119.37212,273.8116)"
         id="g6036">
        <path
           inkscape:connector-curvature="0"
           id="path6038"
           style="fill:#db1f26;fill-opacity:1;fill-rule:nonzero;stroke:none"
           d="M 0,0 C 0,0 -16.817,4.727 -9.991,24.335 -9.991,24.335 9.946,18.091 0,0" />
      </g>
      <g
         transform="matrix(1.0821929,0,0,-1.0821929,117.734,305.77698)"
         id="g6040">
        <path
           inkscape:connector-curvature="0"
           id="path6042"
           style="fill:#db1f26;fill-opacity:1;fill-rule:nonzero;stroke:none"
           d="M 0,0 C 0,0 7.45,15.746 25.606,5.759 25.606,5.759 16.137,-12.825 0,0" />
      </g>
      <g
         transform="matrix(1.0821929,0,0,-1.0821929,265.78425,399.2081)"
         id="g6044">
        <path
           inkscape:connector-curvature="0"
           id="path6046"
           style="fill:#0c4d9c;fill-opacity:1;fill-rule:nonzero;stroke:none"
           d="M 0,0 C 0,0 13.727,18.783 35.018,1.122 35.018,1.122 17.947,-20.847 0,0" />
      </g>
      <g
         transform="matrix(1.0821929,0,0,-1.0821929,228.4845,433.6606)"
         id="g6048">
        <path
           inkscape:connector-curvature="0"
           id="path6050"
           style="fill:#0c4d9c;fill-opacity:1;fill-rule:nonzero;stroke:none"
           d="m 0,0 c 0,0 22.854,-5.806 14.298,-32.506 0,0 -27.119,7.743 -14.298,32.506" />
      </g>
      <g
         transform="matrix(1.0821929,0,0,-1.0821929,242.34375,379.61022)"
         id="g6052">
        <path
           inkscape:connector-curvature="0"
           id="path6054"
           style="fill:#ac1419;fill-opacity:1;fill-rule:nonzero;stroke:none"
           d="m 0,0 c 0,0 -18.302,-0.304 -17.317,21.447 0,0 21.885,-0.3 17.317,-21.447" />
      </g>
      <g
         transform="matrix(1.0821929,0,0,-1.0821929,291.0435,382.71248)"
         id="g6056">
        <path
           inkscape:connector-curvature="0"
           id="path6058"
           style="fill:#4d8bc9;fill-opacity:1;fill-rule:nonzero;stroke:none"
           d="M 0,0 C 0,0 4.923,22.743 31.557,15.239 31.557,15.239 24.875,-11.764 0,0" />
      </g>
      <g
         transform="matrix(1.0821929,0,0,-1.0821929,256.17975,438.62035)"
         id="g6060">
        <path
           inkscape:connector-curvature="0"
           id="path6062"
           style="fill:#4d8bc9;fill-opacity:1;fill-rule:nonzero;stroke:none"
           d="m 0,0 c 0,0 23.514,-1.958 19.474,-29.707 0,0 -28.025,3.16 -19.474,29.707" />
      </g>
      <g
         transform="matrix(1.0821929,0,0,-1.0821929,249.12862,361.39835)"
         id="g6064">
        <path
           inkscape:connector-curvature="0"
           id="path6066"
           style="fill:#0c4d9c;fill-opacity:1;fill-rule:nonzero;stroke:none"
           d="M 0,0 C 0,0 -17.506,2.309 -13.51,22.924 -13.51,22.924 7.341,19.54 0,0" />
      </g>
      <g
         transform="matrix(1.0821929,0,0,-1.0821929,257.8875,348.99647)"
         id="g6068">
        <path
           inkscape:connector-curvature="0"
           id="path6070"
           style="fill:#ac1419;fill-opacity:1;fill-rule:nonzero;stroke:none"
           d="M 0,0 C 0,0 -20.308,14.555 -1.564,37.639 -1.564,37.639 22.211,19.5 0,0" />
      </g>
      <g
         transform="matrix(1.0821929,0,0,-1.0821929,292.56313,359.62398)"
         id="g6072">
        <path
           inkscape:connector-curvature="0"
           id="path6074"
           style="fill:#ac1419;fill-opacity:1;fill-rule:nonzero;stroke:none"
           d="M 0,0 C 0,0 -2.013,23.177 25.643,23.891 25.643,23.891 27.235,-3.88 0,0" />
      </g>
      <g
         transform="matrix(1.0821929,0,0,-1.0821929,271.69925,433.8451)"
         id="g6076">
        <path
           inkscape:connector-curvature="0"
           id="path6078"
           style="fill:#ac1419;fill-opacity:1;fill-rule:nonzero;stroke:none"
           d="M 0,0 C 0,0 16.492,16.857 35.314,-3.949 35.314,-3.949 15.008,-23.51 0,0" />
      </g>
      <g
         transform="matrix(1.0821929,0,0,-1.0821929,125.561,348.2636)"
         id="g6080">
        <path
           inkscape:connector-curvature="0"
           id="path6082"
           style="fill:#db1f26;fill-opacity:1;fill-rule:nonzero;stroke:none"
           d="m 0,0 c 0,0 -14.319,-13.23 -28.973,4.716 0,0 17.585,15.308 28.973,-4.716" />
      </g>
      <g
         transform="matrix(1.0821929,0,0,-1.0821929,197.85863,388.78823)"
         id="g6084">
        <path
           inkscape:connector-curvature="0"
           id="path6086"
           style="fill:#0c4d9c;fill-opacity:1;fill-rule:nonzero;stroke:none"
           d="M 0,0 C 0,0 14.653,2.02 15.978,-15.514 15.978,-15.514 -1.607,-17.4 0,0" />
      </g>
      <g
         transform="matrix(1.0821929,0,0,-1.0821929,280.81125,366.61235)"
         id="g6088">
        <path
           inkscape:connector-curvature="0"
           id="path6090"
           style="fill:#db1f26;fill-opacity:1;fill-rule:nonzero;stroke:none"
           d="M 0,0 C 0,0 -15.92,10.02 -2.874,28.18 -2.874,28.18 15.797,15.637 0,0" />
      </g>
      <g
         transform="matrix(1.0821929,0,0,-1.0821929,266.63813,384.54985)"
         id="g6092">
        <path
           inkscape:connector-curvature="0"
           id="path6094"
           style="fill:#4d8bc9;fill-opacity:1;fill-rule:nonzero;stroke:none"
           d="M 0,0 C 0,0 -15.043,9.462 -2.722,26.609 -2.722,26.609 14.914,14.765 0,0" />
      </g>
      <g
         transform="matrix(1.0821929,0,0,-1.0821929,243.7145,411.59885)"
         id="g6096">
        <path
           inkscape:connector-curvature="0"
           id="path6098"
           style="fill:#db1f26;fill-opacity:1;fill-rule:nonzero;stroke:none"
           d="M 0,0 C 0,0 12.684,11.945 25.946,-3.974 25.946,-3.974 10.353,-17.824 0,0" />
      </g>
      <g
         transform="matrix(1.0821929,0,0,-1.0821929,201.40013,424.17723)"
         id="g6100">
        <path
           inkscape:connector-curvature="0"
           id="path6102"
           style="fill:#ac1419;fill-opacity:1;fill-rule:nonzero;stroke:none"
           d="m 0,0 c 0,0 21.197,-7.413 10.859,-32.039 0,0 -25.099,9.611 -10.859,32.039" />
      </g>
      <g
         transform="matrix(1.0821929,0,0,-1.0821929,69.08925,213.45398)"
         id="g6107">
        <path
           inkscape:connector-curvature="0"
           id="path6109"
           style="fill:#4d8bc9;fill-opacity:1;fill-rule:nonzero;stroke:none"
           d="M 0,0 C 0,0 -18.852,8.941 -6.856,30.67 -6.856,30.67 15.377,19.297 0,0" />
      </g>
      <g
         transform="matrix(1.0821929,0,0,-1.0821929,200.56212,283.6321)"
         id="g6111">
        <path
           inkscape:connector-curvature="0"
           id="path6113"
           style="fill:#0c4d9c;fill-opacity:1;fill-rule:nonzero;stroke:none"
           d="M 0,0 C 0,0 3.996,21.262 28.958,14.964 28.958,14.964 23.412,-10.338 0,0" />
      </g>
      <g
         transform="matrix(1.0821929,0,0,-1.0821929,69.92,138.61823)"
         id="g6115">
        <path
           inkscape:connector-curvature="0"
           id="path6117"
           style="fill:#4d8bc9;fill-opacity:1;fill-rule:nonzero;stroke:none"
           d="M 0,0 C 0,0 -0.978,13.271 14.834,13.466 14.834,13.466 15.528,-2.432 0,0" />
      </g>
      <g
         transform="matrix(1.0821929,0,0,-1.0821929,68.2195,158.22035)"
         id="g6119">
        <path
           inkscape:connector-curvature="0"
           id="path6121"
           style="fill:#db1f26;fill-opacity:1;fill-rule:nonzero;stroke:none"
           d="M 0,0 C 0,0 -0.977,13.267 14.834,13.466 14.834,13.466 15.529,-2.432 0,0" />
      </g>
      <g
         transform="matrix(1.0821929,0,0,-1.0821929,-381.439,921.39248)"
         id="g6123">
        <g
           id="g6127">
          <g
             id="g6130">
            <g
               id="g6132">
              <path
                 sodipodi:nodetypes="cccccccccccccccccccccccccccccccccccccccccccccccccccccccccccccccccccccccccccccccccccccccccccccccccccccccccccccccccccccccccccccccccccccccccccccccccccccccccccccccczccccccccccccccccccccccccccccccccccccccccccccccccccccccccccccccccccccccccccccccccccccccccccccccccccccccccccccccccccccccccccccccccccccccccccccccccccccccccccccccccccccccccccccccccccccccccccccccccccccccccccccccccccccccccccccccccccccccccccccccccccccccccccccccccccccccccccccccccccccccccccccccccccccccccccccccccc"
                 inkscape:connector-curvature="0"
                 id="path6134"
                 style="fill:url(#linearGradient6158);stroke:none"
                 d="m 384.398,671.889 c 2.882,-13.907 4.742,-27.996 5.111,-42.03 l 0,0 c 0.182,-7.01 -0.02,-14.012 -0.709,-20.899 l 0,0 c -0.231,-2.285 -0.542,-4.554 -0.89,-6.806 l 0,0 c -1.731,-3.377 -3.417,-6.783 -5.017,-10.24 l 0,0 c -5.647,-12.185 -10.505,-24.883 -14.486,-37.987 l 0,0 c -1.666,4.526 -3.483,8.996 -5.43,13.394 l 0,0 c -1.897,4.279 -3.931,8.492 -6.082,12.633 l 0,0 c 0.825,3.168 1.267,5.94 1.673,8.912 l 0,0 c 0.391,3.085 0.629,6.168 0.724,9.252 l 0,0 c 0.188,6.161 -0.195,12.322 -1.158,18.382 l 0,0 c -0.963,6.048 -2.519,12.002 -4.655,17.715 l 0,0 c -1.058,2.859 -2.281,5.65 -3.62,8.372 l 0,0 c -1.325,2.733 -2.939,5.375 -4.235,7.808 l 0,0 c -5.271,10.136 -8.601,21.364 -10.404,32.838 l 0,0 c -1.766,11.489 -2.222,23.287 -0.984,34.961 l 0,0 c -2.078,-11.57 -2.505,-23.454 -1.557,-35.265 l 0,0 c 0.985,-11.804 3.54,-23.622 8.319,-34.728 l 0,0 c 1.237,-2.867 2.49,-5.35 3.518,-8.003 l 0,0 c 1.036,-2.639 1.954,-5.317 2.715,-8.039 l 0,0 c 1.535,-5.437 2.505,-11.012 2.925,-16.611 l 0,0 c 0.419,-5.6 0.297,-11.226 -0.34,-16.767 l 0,0 c -0.189,-1.691 -0.449,-3.371 -0.739,-5.043 l 0,0 c -4.46,7.283 -9.303,14.313 -14.53,21.017 l 0,0 c -11.424,14.442 -24.585,27.372 -38.971,38.554 l 0,0 c -7.188,5.593 -14.681,10.754 -22.42,15.475 l 0,0 c -7.768,4.676 -15.768,8.904 -23.934,12.73 l 0,0 c 7.753,-4.601 15.268,-9.567 22.471,-14.917 l 0,0 c 7.233,-5.3 14.168,-10.971 20.734,-17.013 l 0,0 c 13.133,-12.075 24.775,-25.636 34.548,-40.335 l 0,0 c 9.889,-14.616 17.931,-30.381 23.933,-46.815 l 0,0 c 2.997,-8.217 13.48,-16.6 15.421,-25.07 l 0,0 c 0.992,-4.225 1.847,-8.474 2.533,-12.72 l 0,0 c 0.059,-0.373 0.109,-0.753 0.167,-1.129 l 0,0 c -0.991,-5.387 -1.823,-10.817 -2.461,-16.293 l 0,0 c -0.739,-5.693 -1.462,-11.175 -2.332,-16.771 l 0,0 c -0.412,-2.711 -0.904,-5.421 -1.353,-8.133 l 0,0 c -0.478,0.742 -0.912,1.502 -1.419,2.226 l 0,0 c -4.293,6.175 -17.802,11.656 -24.079,15.843 l 0,0 c -6.284,4.207 -13.234,7.114 -20.227,8.88 l 0,0 c -5.828,1.455 -11.49,2.454 -17.122,3.331 l 0,0 c -5.061,1.472 -10.36,3.492 -15.029,6.051 l 0,0 c -5.083,2.697 -9.759,6.078 -12.974,10.27 l 0,0 c -1.599,2.088 -2.801,4.358 -3.554,6.757 l 0,0 c -0.717,2.191 -0.97,5.496 -1.441,8.551 l 0,0 c -0.832,6.182 -1.722,12.459 -2.91,18.696 l 0,0 c -2.534,12.423 -6.125,24.907 -12.517,36.078 l 0,0 c -3.2,5.557 -7.073,10.744 -11.634,15.192 l 0,0 c -4.604,4.406 -9.868,8.07 -15.573,10.661 l 0,0 c 10.577,-6.78 18.418,-16.753 23.348,-27.833 l 0,0 c 4.995,-11.105 7.639,-23.119 9.114,-35.278 l 0,0 c 0.827,-6.078 1.355,-12.209 1.862,-18.425 l 0,0 0.39,-4.701 c 0.109,-1.427 0.34,-3.534 0.804,-5.264 l 0,0 c 0.876,-3.627 2.563,-7.008 4.676,-9.926 l 0,0 c 1.876,-2.58 4.026,-4.821 6.327,-6.823 l 0,0 c -3.793,0.539 -7.579,1.097 -11.336,1.742 l 0,0 c -12.372,2.027 -24.521,4.789 -36.024,9.259 l 0,0 c -11.49,4.442 -22.276,10.693 -31.543,18.928 l 0,0 c -9.296,8.203 -16.984,18.309 -23.029,29.399 l 0,0 c -6.117,11.069 -10.671,23.091 -14.11,35.423 l 0,0 c 2.288,-12.6 5.712,-25.092 10.918,-37 l 0,0 c 5.249,-11.863 12.387,-23.087 21.574,-32.641 l 0,0 c 9.15,-9.581 20.292,-17.32 32.251,-23.097 l 0,0 c 11.975,-5.813 24.673,-9.795 37.349,-12.933 l 0,0 c 5.741,-1.398 11.483,-2.607 17.194,-3.779 l 0,0 c -6.269,-0.902 -12.496,-2.451 -18.475,-4.83 l 0,0 c -3.692,-1.436 -7.225,-3.384 -10.432,-5.168 l 0,0 -9.752,-5.365 c -6.436,-3.544 -12.916,-6.812 -19.735,-8.737 l 0,0 c -6.806,-1.992 -13.936,-2.347 -21.024,-1.271 l 0,0 c -7.087,1.093 -14.023,3.641 -20.632,6.88 l 0,0 c -6.668,3.161 -13.003,7.095 -19.236,11.193 l 0,0 c 11.287,-9.629 23.869,-18.576 39.028,-22.33 l 0,0 c 7.523,-1.898 15.638,-1.821 23.269,-0.105 l 0,0 c 7.666,1.686 14.79,4.792 21.588,8.035 l 0,0 10.012,5.05 c 3.367,1.716 6.436,3.261 9.738,4.413 l 0,0 c 6.587,2.392 13.631,3.583 20.733,4.242 l 0,0 c 7.124,0.615 14.356,0.485 21.553,-0.152 l 0,0 c 4.981,-0.384 10.034,-1.075 14.957,-1.969 l 0,0 c 4.024,-1.626 7.753,-3.7 11.033,-6.248 l 0,0 c 8.346,-6.435 25.31635,-17.48905 27.76637,-28.19245 2.45002,-10.7034 -0.36008,-24.90364 -1.43643,-26.86737 -3.33233,-8.491 -7.37461,-10.82918 -10.70694,-19.32018 l 0,0 c -1.462,-1.528 -2.295,-4.808 -1.317,-4.945 l 0,0 c 0.97,-0.137 4.676,-0.065 4.676,-0.065 l 0,0 c 1.47,-0.981 0.732,-1.752 -2.077,-1.883 l 0,0 c -1.139,-0.053 -1.768,-0.046 -2.188,-0.039 l 0,0 c -0.694,0.012 -0.818,0.024 -1.729,-0.235 l 0,0 c -1.462,-0.417 -2.642,-2.43 -1.81,-2.776 l 0,0 c 0.833,-0.348 2.571,-0.142 0.695,-0.768 l 0,0 c -1.875,-0.623 -2.635,-3.258 -3.468,-5.553 l 0,0 c -0.839,-2.292 -0.694,-4.792 -0.63,-5.003 l 0,0 c 0.073,-0.201 -1.179,-2.012 -1.94,-1.527 l 0,0 c -0.767,0.489 -0.484,-0.138 -1.042,-1.18 l 0,0 c -0.557,-1.039 -3.822,-5.698 -3.54,-6.389 l 0,0 c 0.276,-0.691 0.065,-1.318 -0.42,-1.527 l 0,0 c -0.485,-0.207 -0.138,-1.043 -0.557,-2.292 l 0,0 c -0.413,-1.249 -2.15,-3.475 -3.468,-5.487 l 0,0 c -1.318,-2.016 -5.278,-3.121 -0.63,-4.305 l 0,0 c 4.655,-1.183 5.423,-1.805 2.367,-1.805 l 0,0 c -3.055,0 -3.713,1.042 -4.568,-0.348 l 0,0 c -0.854,-1.389 -1.897,-3.059 -0.992,-3.403 l 0,0 c 0.905,-0.347 1.948,-0.836 0.073,-0.905 l 0,0 c -1.876,-0.068 -4.033,-3.749 -4.728,-5.067 l 0,0 c -0.688,-1.321 -1.665,-3.613 -2.635,-4.93 l 0,0 c -0.97,-1.322 -1.325,-5.184 -0.514,-7.135 l 0,0 c 3.475,-8.398 10.121,-9.751 13.09,-6.255 l 0,0 c 2.961,3.497 6.239,4.626 6.239,4.626 l 0,0 c -10.493,-13.932 -19.684,-5.929 -21.107,-4.268 l 0,0 c -1.422,1.662 -1.987,1.901 -1.987,1.901 l 0,0 c -1.317,-1.737 -5.863,-6.096 -5.726,-7.623 l 0,0 182.117,8.596 0,0 c -1.926,2.937 -2.837,3.95 -4.763,5.77 l 0,0 c -1.926,1.821 -3.649,-0.1 -10.128,-1.719 l 0,0 c -6.486,-1.618 -8.716,-2.027 -6.993,-0.608 l 0,0 c 1.723,1.423 5.574,2.432 9.629,3.949 l 0,0 c 4.046,1.52 5.06,5.981 4.654,6.994 l 0,0 c -0.405,1.014 -12.518,3.239 -14.849,5.625 l 0,0 c -2.331,2.385 -2.729,1.057 -6.985,0.246 l 0,0 c -4.257,-0.81 -4.156,0.506 -0.913,2.027 l 0,0 c 3.244,1.52 4.46,4.561 4.46,6.385 l 0,0 c 0,1.821 -0.71,2.733 -3.953,6.885 l 0,0 c -3.237,4.155 -6.993,12.257 -9.419,15.804 l 0,0 c -0.412,0.601 -0.679,1.082 -0.851,1.486 l 0,0 c -0.414,0.386 -0.808,0.828 -1.132,1.319 l 0,0 c -2.028,3.069 -7.008,4.58 -7.008,4.58 l 0,0 c -14.03544,27.74475 -9.30833,32.7795 5.56,48.205 l 0,0 c 4.524,4.756 9.382,9.303 14.377,13.842 l 0,0 c 2.556,1.093 5.205,1.998 7.949,2.726 l 0,0 c 7.638,2.038 15.776,2.74 23.999,2.892 l 0,0 c 6.366,0.138 12.794,-0.09 19.282,-0.318 l 0,0 c 8.072,-0.284 16.235,-0.568 24.482,-0.145 l 0,0 c 6.442,-2.933 13.038,-5.546 19.77,-7.75 l 0,0 c 7.45,-2.444 15.074,-4.376 22.769,-5.868 l 0,0 c 7.718,-1.376 15.522,-2.328 23.347,-2.519 l 0,0 c 7.819,-0.167 15.696,0.21 23.291,1.998 l 0,0 c -3.851,-0.529 -7.739,-0.602 -11.599,-0.543 l 0,0 c -3.865,0.039 -7.724,0.261 -11.561,0.644 l 0,0 c -7.674,0.76 -15.289,2.013 -22.768,3.815 l 0,0 c -7.508,1.687 -14.878,3.917 -22.146,6.429 l 0,0 c -4.098,1.434 -8.152,2.99 -12.184,4.608 l 0,0 c 16.383,2.183 32.194,8.004 46.072,16.633 l 0,0 c 14.458,8.974 26.939,20.937 36.415,34.84 l 0,0 C 613.19,505.43 600.202,494.31 585.614,486.31 l 0,0 c -5.212,-2.862 -10.642,-5.306 -16.209,-7.333 l 0,0 c 1.13,1.172 2.201,2.396 3.2,3.656 l 0,0 c 4.467,5.734 7.623,12.195 10.302,18.728 l 0,0 c 2.534,6.611 4.554,13.353 6.088,20.192 l 0,0 c 1.536,6.838 2.687,13.736 3.41,20.682 l 0,0 c -1.802,-6.743 -3.62,-13.454 -5.733,-20.049 l 0,0 c -2.121,-6.588 -4.416,-13.107 -7.313,-19.322 l 0,0 c -2.758,-6.259 -6.109,-12.246 -10.244,-17.481 l 0,0 c -2.055,-2.612 -4.372,-5.002 -6.957,-6.92 l 0,0 c -1.273,-0.97 -2.635,-1.821 -4.039,-2.479 l 0,0 c -1.346,-0.635 -3.011,-1.14 -4.105,-1.221 l 0,0 0,-0.163 c -5.154,-1.078 -10.36,-1.831 -15.609,-2.15 l 0,0 c -16.332,-1.013 -33.004,1.785 -50.133,2.22 l 0,0 c -5.952,0.151 -12.004,0.029 -18.078,-0.692 l 0,0 c 9.6,8.911 19.034,18.276 27.403,28.686 l 0,0 c 8.418,10.433 15.615,21.977 20.972,34.222 l 0,0 c 5.408,12.249 9.027,25.049 11.627,37.943 l 0,0 c 5.155,25.837 5.777,52.262 3.004,78.107 l 0,0 c 0.978,-25.975 -1.498,-52.057 -8.282,-76.859 l 0,0 c -3.402,-12.383 -7.768,-24.488 -13.675,-35.662 l 0,0 c -5.872,-11.21 -13.292,-21.447 -21.864,-30.678 l 0,0 c -8.565,-9.244 -18.2,-17.562 -28.212,-25.602 l 0,0 c -9.933,-8 -20.633,-15.764 -30.637,-24.893 l 0,0 -15.233,-14.216 0,0 c -11.42722,28.04878 -10.57529,54.9023 -6.038,65.732 l 0,0 c 1.774,3.613 3.765,7.077 6.002,10.342 l 0,0 c 1.137,1.647 2.288,3.153 3.605,4.735 l 0,0 4.134,4.876 c 1.896,2.208 3.823,4.434 5.741,6.653 l 0,0 c 6.415,1.466 12.763,3.229 19.004,5.357 l 0,0 c 7.42,2.52 14.674,5.553 21.718,8.988 l 0,0 c 7.001,3.537 13.814,7.46 20.184,12.01 l 0,0 c 6.349,4.558 12.424,9.596 17.419,15.587 l 0,0 c -2.766,-2.74 -5.821,-5.129 -8.949,-7.402 l 0,0 c -3.112,-2.291 -6.327,-4.431 -9.627,-6.429 l 0,0 c -6.597,-4.003 -13.43,-7.572 -20.496,-10.631 l 0,0 c -7.016,-3.16 -14.248,-5.806 -21.56,-8.16 l 0,0 c -4.271,-1.357 -8.586,-2.591 -12.916,-3.742 l 0,0 c 2.129,2.487 4.266,4.97 6.364,7.485 l 0,0 c 10.99,13.48 21.669,27.464 30.038,42.924 l 0,0 c 4.141,7.732 7.732,15.818 10.105,24.285 l 0,0 c 2.289,8.452 3.381,17.361 2.036,25.932 l 0,0 c 0.195,-8.662 -1.725,-17.118 -4.859,-24.998 l 0,0 c -3.069,-7.92 -7.246,-15.362 -11.952,-22.428 l 0,0 c -5.271,-7.92 -11.141,-15.428 -17.353,-22.675 l 0,0 c 1.194,6.002 1.426,12.084 1.325,18.078 l 0,0 c -0.29,7.069 -1.101,14.066 -2.397,20.954 l 0,0 c -1.296,6.889 -2.99,13.676 -5.061,20.34 l 0,0 c 1.007,-6.906 2.014,-13.784 2.672,-20.683 l 0,0 c 0.658,-6.885 1.129,-13.785 0.941,-20.633 l 0,0 c -0.065,-6.838 -0.767,-13.665 -2.49,-20.111 l 0,0 c -0.55,-2.064 -1.252,-4.073 -2.1,-5.995 l 0,0 c -2.65,-2.907 -5.35,-5.781 -8.079,-8.629 l 0,0 c -5.871,-6.234 -11.909,-12.322 -17.961,-18.552 l 0,0 -4.532,-4.731 c -1.549,-1.636 -3.142,-3.467 -4.561,-5.295 l 0,0 c -2.903,-3.671 -5.408,-7.599 -7.602,-11.642 l 0,0 c -1.477,-2.722 -2.78,-5.506 -4.017,-8.315 l 0,0 c -0.587,4.778 -1.036,9.589 -1.304,14.436 l 0,0 c -1.151,20.941 1.028,42.424 6.393,63.397 l 0,0 c 5.328,20.984 13.74,41.461 24.716,60.603 l 0,0 c 0.282,0.499 0.594,0.991 0.883,1.484 l 0,0 c 7.015,1.538 13.958,3.431 20.77,5.752 l 0,0 c 7.428,2.519 14.682,5.552 21.726,8.987 l 0,0 c 7.001,3.537 13.806,7.464 20.184,12.01 l 0,0 c 6.349,4.562 12.415,9.6 17.412,15.583 l 0,0 c -2.76,-2.732 -5.822,-5.121 -8.949,-7.394 l 0,0 c -3.113,-2.295 -6.327,-4.431 -9.622,-6.429 l 0,0 c -6.594,-4.004 -13.429,-7.574 -20.495,-10.635 l 0,0 c -7.014,-3.157 -14.247,-5.799 -21.566,-8.16 l 0,0 c -5.422,-1.722 -10.917,-3.232 -16.441,-4.633 l 0,0 c 4.444,7.243 9.252,14.284 14.428,21.053 l 0,0 c 6.791,8.724 14.045,17.234 22.233,24.614 l 0,0 -1.607,1.822 c -8.289,-7.628 -16.036,-15.674 -23.471,-24.087 l 0,0 c -7.442,-8.391 -14.566,-17.099 -21.292,-26.163 l 0,0 c -6.826,-9.198 -13.27,-18.754 -19.228,-28.672 l 0,0 c -0.144,2.863 -0.332,5.718 -0.601,8.567 l 0,0 c -0.919,9.604 -2.504,19.073 -4.582,28.405 l 0,0 0.123,-0.061 c 3.663,6.92 6.936,14.062 9.73,21.389 l 0,0 c 2.809,7.322 5.104,14.84 6.965,22.457 l 0,0 c 1.751,7.637 3.076,15.383 3.656,23.194 l 0,0 c 0.542,7.798 0.542,15.689 -0.87,23.356 l 0,0 c 0.341,-3.873 0.225,-7.754 -0.02,-11.612 l 0,0 c -0.226,-3.86 -0.638,-7.696 -1.203,-11.511 l 0,0 c -1.137,-7.631 -2.758,-15.171 -4.916,-22.559 l 0,0 c -2.048,-7.413 -4.64,-14.667 -7.499,-21.801 l 0,0 c -2.281,-5.629 -4.793,-11.16 -7.428,-16.637 l 0,0 c -0.689,2.762 -1.405,5.513 -2.165,8.242 l 0,0 c -7.826,27.923 -19.532,54.416 -33.274,79.588 l 0,0 c 12.025,-26.03 21.857,-53.116 27.677,-80.949" />
            </g>
          </g>
        </g>
      </g>
      <g
         id="text6136"
         style="font-style:normal;font-weight:normal;font-size:43.83855438px;line-height:74.00000095%;font-family:sans-serif;letter-spacing:0px;word-spacing:0px;fill:#412710;fill-opacity:1;stroke:none;stroke-width:1px;stroke-linecap:butt;stroke-linejoin:miter;stroke-opacity:1"
         transform="scale(0.99964254,1.0003576)">
        <path
           id="path4582"
           style="font-style:normal;font-variant:normal;font-weight:normal;font-stretch:normal;font-size:43.83855438px;line-height:74.00000095%;font-family:Italianno;-inkscape-font-specification:'Italianno, Normal';text-align:center;writing-mode:lr-tb;text-anchor:middle;fill:#412710;fill-opacity:1"
           d="m -3.0486543,471.76206 4.4715325,0.17535 q 6.1812362,-0.0438 10.0828678,-0.0438 l -0.92061,1.1398 q -0.876771,0 -2.6303132,0 -1.7097036,-0.0438 -2.5864747,-0.0438 1.6220265,1.09596 2.4111205,3.20021 0.789094,2.06041 0.789094,3.81395 l -0.043839,2.32345 q 0,0.65758 0,1.22748 -0.2191927,4.7784 -1.7973807,10.43357 0.4822241,-0.70141 2.9371832,-4.38385 6.4881065,-9.60065 11.9679255,-14.81743 0.876771,-0.83294 2.454959,-1.66587 1.622026,-0.87677 3.068699,-0.87677 1.358995,0 2.10425,0.43839 l -0.263031,0.48222 q -0.350708,-0.0877 -1.052125,-0.0877 -0.657579,0 -2.016574,0.61374 -1.358995,0.61374 -2.630313,1.88506 -1.271318,1.27132 -2.148089,3.94547 -0.876771,2.63031 -1.095964,5.04143 -0.175354,2.36729 -0.438386,5.21679 -0.219192,2.80567 -0.613739,4.2085 9.512966,-13.45843 18.017645,-20.56028 1.709704,-1.44667 3.94547,-2.58647 2.235767,-1.13981 3.94547,-1.13981 1.797381,0 2.104251,0.83294 0.175354,0.48222 0.175354,0.83293 0,0.35071 -0.175354,0.87677 -0.175354,0.52606 -0.350709,0.92061 -0.131515,0.35071 -0.394547,0.87677 -0.263031,0.52606 -0.394547,0.78909 -0.08768,0.2192 -0.526062,0.13152 -0.08768,-0.0877 -0.131516,-0.13152 0.350708,-1.18364 0.350708,-2.01657 0,-1.57819 -1.315156,-1.79738 -0.263031,-0.0438 -0.92061,-0.0438 -1.665865,0 -5.611335,3.24405 -6.838814,5.43599 -13.458436,13.85299 -3.94547,4.95375 -5.830528,8.19781 -0.04384,0.0877 -0.131515,0.39454 -0.08768,0.30687 -0.219193,0.43839 -0.131516,0.13152 -0.92061,0.43839 -0.745255,0.30687 -1.052125,0.30687 -0.30687,0 -0.482224,-0.13152 -0.394547,-0.17535 0.131516,-1.22748 l 0.745255,-2.45496 q 0.526063,-1.88506 0.832932,-5.26063 0.350709,-3.4194 0.92061,-6.22507 0.61374,-2.80567 1.885058,-4.73456 -0.832933,0.43838 -3.989308,4.42769 -0.438386,0.52606 -1.22748,1.49051 -0.745255,0.96445 -1.22748,1.57819 -2.981021,3.81395 -7.1018453,10.95964 -0.043839,0.0877 -0.1315157,0.39454 -0.087677,0.30687 -0.2191928,0.39455 -0.087677,0.13152 -1.0959638,0.43839 -1.0082868,0.35071 -1.3151567,0.35071 -0.3068699,0 -0.4822241,-0.13152 -0.394547,-0.17535 0.1315157,-1.22748 2.060412,-6.79498 2.7179904,-12.0556 0.1753542,-3.37557 0.1753542,-4.55921 0,-1.22748 -0.5260627,-3.41941 -0.4822241,-2.19193 -1.6220265,-3.50708 l -3.33173012,0 q -6.88265308,0 -6.88265308,3.15637 0,1.13981 0.5699013,1.88506 l -0.4822241,0.35071 q -0.043839,-0.0877 -0.6137398,-1.00829 -1.0959639,-1.75354 -1.0959639,-2.10425 0,-0.39455 0,-0.5699 0,-1.31516 0.6575783,-1.88506 1.1398025,-1.00828 3.9016314,-1.00828 z" />
        <path
           id="path4584"
           style="font-style:normal;font-variant:normal;font-weight:normal;font-stretch:normal;font-size:43.83855438px;line-height:74.00000095%;font-family:Italianno;-inkscape-font-specification:'Italianno, Normal';text-align:center;writing-mode:lr-tb;text-anchor:middle;fill:#412710;fill-opacity:1"
           d="m 34.590168,490.48112 q -0.657578,1.7097 -0.657578,3.20021 0,1.44668 1.797381,1.44668 0.657578,0 1.709703,-0.39455 1.709704,-0.5699 3.550923,-2.19193 1.84122,-1.62203 3.024861,-3.15638 0.131515,0.13152 0.131515,0.35071 0,0.2192 -0.30687,0.65758 -1.622026,2.23577 -4.033147,3.94547 -2.41112,1.7097 -4.909918,1.7097 -3.244053,0 -3.244053,-2.36728 0,-1.88505 2.016574,-5.21678 1.139802,-1.79739 3.244053,-3.33174 2.10425,-1.57818 4.033147,-1.57818 1.928896,0 1.928896,1.84122 0,1.92889 -1.534349,2.93718 -1.490511,0.96445 -3.419408,1.57819 -1.885057,0.5699 -3.33173,0.5699 z m 0.350709,-0.87677 q 0.263031,0 0.964448,0 0.745255,0 1.753542,-0.30687 2.498798,-0.74526 3.244053,-2.80567 0.219193,-0.61374 0.219193,-1.1398 0,-0.5699 -0.350708,-0.7891 -0.350709,-0.26303 -0.61374,-0.26303 -2.849506,0.0438 -5.216788,5.30447 z" />
        <path
           id="path4586"
           style="font-style:normal;font-variant:normal;font-weight:normal;font-stretch:normal;font-size:43.83855438px;line-height:74.00000095%;font-family:Italianno;-inkscape-font-specification:'Italianno, Normal';text-align:center;writing-mode:lr-tb;text-anchor:middle;fill:#412710;fill-opacity:1"
           d="m 54.40177,483.68614 1.358995,0.0438 q 1.709704,-2.32344 3.419407,-6.09356 0.394547,-0.0438 1.22748,-0.48222 0.832932,-0.48223 1.183641,-0.83293 0.394547,-0.39455 0.482224,-0.39455 0.131515,0 0.131515,0.13151 0,0.0877 -0.350708,0.48223 -0.350708,0.39455 -1.753542,2.63031 -1.358995,2.19193 -2.498798,4.55921 l 3.550923,0 q 0.438386,0 0.482224,0.13152 0.04384,0.13151 -0.30687,0.26303 -0.30687,0.0877 -0.613739,0.17535 -0.263032,0.0877 -1.22748,0.17536 -2.148089,0.13151 -2.674152,0.87677 -0.482224,0.70141 -1.709703,3.68244 -2.279605,5.52365 -0.701417,5.52365 1.358995,0 4.997595,-4.2085 l 0.832933,-1.05212 q 0.08768,0.13151 0.08768,0.43838 0,0.26303 -0.482224,0.92061 -4.033147,5.17295 -7.277201,5.17295 -1.052125,0 -1.052125,-0.83293 0,-1.05213 1.709704,-4.47153 l 2.367282,-5.30447 q -4.471533,5.43598 -4.55921,5.5675 -0.30687,0.43838 -0.30687,-0.0877 0,-0.35071 0.219193,-0.61374 2.981022,-3.72628 4.120824,-5.21679 -0.394547,0 -2.367282,0.2192 -0.438385,0 0.30687,-0.70142 0.789094,-0.70142 1.095964,-0.70142 l 0.30687,0 z" />
        <path
           id="path4588"
           style="font-style:normal;font-variant:normal;font-weight:normal;font-stretch:normal;font-size:43.83855438px;line-height:74.00000095%;font-family:Italianno;-inkscape-font-specification:'Italianno, Normal';text-align:center;writing-mode:lr-tb;text-anchor:middle;fill:#412710;fill-opacity:1"
           d="m 70.107619,483.37927 q 0.876772,0 0.876772,0.70142 0,0.5699 -0.569902,1.62203 -0.964448,1.53435 -2.454959,4.42769 -1.446672,2.89334 -1.446672,3.59476 0,0.65758 0.263031,0.83293 0.263032,0.13152 0.61374,0.0438 0.745255,-0.17535 1.22748,-0.5699 1.841219,-1.40283 4.252339,-4.38385 l 0.04384,0.21919 q -0.04384,0.61374 -0.657578,1.40283 -0.569902,0.74526 -1.665865,1.97274 -2.367282,2.71799 -4.603049,2.71799 -1.709703,0 -1.709703,-1.1398 0,-0.43839 0.131515,-0.83294 0.175355,-0.43838 2.016574,-4.29618 1.885058,-3.90163 1.885058,-4.12082 0,-0.21919 -0.175355,-0.21919 -0.482224,0 -2.016573,1.27132 -1.972735,1.84122 -3.770116,4.16466 -1.753542,2.2796 -2.498797,4.38385 -0.175355,0.48223 -1.139803,0.56991 -0.964448,0.13151 -0.964448,-0.2192 0,-0.0877 0.219193,-0.52606 0.175354,-0.48222 1.709703,-4.29618 1.578188,-3.81395 2.630314,-6.04972 3.94547,-8.76771 8.417002,-12.71318 3.6386,-3.20021 7.803263,-3.20021 2.41112,0 2.586475,1.88505 0.04384,0.2192 0.04384,0.61374 0,0.39455 -0.175354,1.00829 -0.04384,0.17535 -0.219193,0.17535 l -0.219193,0 q -0.04384,0 0,-0.13151 0.04384,-0.13152 0.04384,-0.30687 0,-1.70971 -2.586475,-1.70971 -3.94547,0 -7.2772,2.89335 -4.033147,3.55092 -7.145684,11.79257 -0.438386,1.18364 -1.22748,3.33173 -0.789094,2.14809 -1.095964,2.93718 5.918205,-7.8471 8.855388,-7.8471 z" />
        <path
           id="path4590"
           style="font-style:normal;font-variant:normal;font-weight:normal;font-stretch:normal;font-size:43.83855438px;line-height:74.00000095%;font-family:Italianno;-inkscape-font-specification:'Italianno, Normal';text-align:center;writing-mode:lr-tb;text-anchor:middle;fill:#412710;fill-opacity:1"
           d="m 74.490101,490.48112 q -0.657578,1.7097 -0.657578,3.20021 0,1.44668 1.797381,1.44668 0.657578,0 1.709703,-0.39455 1.709704,-0.5699 3.550923,-2.19193 1.841219,-1.62203 3.02486,-3.15638 0.131516,0.13152 0.131516,0.35071 0,0.2192 -0.30687,0.65758 -1.622026,2.23577 -4.033147,3.94547 -2.41112,1.7097 -4.909918,1.7097 -3.244053,0 -3.244053,-2.36728 0,-1.88505 2.016574,-5.21678 1.139802,-1.79739 3.244053,-3.33174 2.10425,-1.57818 4.033147,-1.57818 1.928896,0 1.928896,1.84122 0,1.92889 -1.534349,2.93718 -1.490511,0.96445 -3.419408,1.57819 -1.885058,0.5699 -3.33173,0.5699 z m 0.350709,-0.87677 q 0.263031,0 0.964448,0 0.745255,0 1.753542,-0.30687 2.498798,-0.74526 3.244053,-2.80567 0.219193,-0.61374 0.219193,-1.1398 0,-0.5699 -0.350709,-0.7891 -0.350708,-0.26303 -0.613739,-0.26303 -2.849506,0.0438 -5.216788,5.30447 z" />
        <path
           id="path4592"
           style="font-style:normal;font-variant:normal;font-weight:normal;font-stretch:normal;font-size:43.83855438px;line-height:74.00000095%;font-family:Italianno;-inkscape-font-specification:'Italianno, Normal';text-align:center;writing-mode:lr-tb;text-anchor:middle;fill:#412710;fill-opacity:1"
           d="m -1.1135931,504.29026 1.75354215,-0.0438 q 1.40283375,0 2.89334455,0.48222 1.5343494,0.48222 2.2357663,1.53435 0.9644482,1.44667 0.9644482,2.54263 0,3.02486 -2.7618289,5.5675 -1.7535422,1.62203 -3.68243858,2.36728 -2.80566752,1.05213 -6.61962172,1.05213 -0.8329325,0 -1.4905108,-0.0877 -0.3507085,-0.0438 0.1315156,-0.48222 0.4822241,-0.43839 0.7014169,-0.39455 0.6137398,0.0877 1.3151566,0.0877 0.7014169,0 1.9288964,-0.13152 1.2274795,-0.17535 2.7179904,-0.61374 1.53434939,-0.48222 2.8933446,-1.79738 1.3589952,-1.31516 1.8850578,-2.8495 0.5699012,-1.53435 0.5699012,-2.4988 0,-1.00829 -0.3507084,-1.9289 -0.8767711,-2.14809 -3.41940726,-2.14809 -2.41112044,0 -3.24405304,1.05213 -0.8329325,1.00828 -1.7097036,2.49879 -0.8329325,1.44668 -1.4028337,2.54264 -0.5699012,1.05213 -1.4905109,2.89335 -0.8767711,1.79738 -1.0959638,2.23576 -0.2191928,0.43839 -0.6575784,1.27132 -0.4383855,0.78909 -0.8767711,1.57819 -0.4383854,0.78909 -1.0082864,1.88506 -0.569902,1.09596 -1.008287,2.06041 -0.438386,0.96445 -0.832933,1.84122 -0.876771,1.97273 -0.569901,2.54263 0.175354,0.39455 -0.526062,0.13152 -0.08768,0 -0.263032,-0.0438 -0.175354,-0.0877 -0.30687,-0.0877 -0.08768,-0.0438 -0.30687,-0.0438 -0.175354,-0.0438 -0.306869,-0.0438 -0.482225,0 -1.622027,0.70141 -1.622026,1.00829 -2.191928,1.00829 -0.526062,0 -0.526062,-0.26303 0,-0.0877 0.08768,-0.13152 1.797381,-0.30687 2.805667,-2.10425 1.972735,-3.33173 3.419408,-6.04972 1.49051,-2.76183 3.200214,-5.87436 1.7097036,-3.11254 2.3234434,-4.34002 0.6137397,-1.22748 1.0959638,-2.23577 0.4822241,-1.05212 0.6575784,-1.35899 0.5699012,-1.05213 2.5864747,-1.75355 -0.6575783,-0.0438 -2.2796049,-0.0438 -1.6220265,0 -4.9537564,0.61374 -4.55921,0.83293 -4.55921,3.6386 0,1.05212 0.701417,1.49051 0.219193,0.0877 -0.04384,0.26303 -0.219192,0.13151 -0.482224,0 -0.219192,-0.17536 -0.789094,-1.00829 -0.876771,-1.35899 -0.876771,-2.41112 0,-2.71799 5.085273,-3.0687 0.832932,-0.0438 2.4111201,-0.0438 l 6.488106,-0.0438 q 0.7014169,0.0438 1.4028338,0.0438 z" />
        <path
           id="path4594"
           style="font-style:normal;font-variant:normal;font-weight:normal;font-stretch:normal;font-size:43.83855438px;line-height:74.00000095%;font-family:Italianno;-inkscape-font-specification:'Italianno, Normal';text-align:center;writing-mode:lr-tb;text-anchor:middle;fill:#412710;fill-opacity:1"
           d="m 7.8760512,522.92165 q -0.6575783,1.7097 -0.6575783,3.20021 0,1.44668 1.7973807,1.44668 0.6575783,0 1.7097034,-0.39455 1.709704,-0.5699 3.550923,-2.19193 1.841219,-1.62203 3.02486,-3.15637 0.131516,0.13151 0.131516,0.3507 0,0.2192 -0.30687,0.65758 -1.622026,2.23577 -4.033147,3.94547 -2.41112,1.70971 -4.9099179,1.70971 -3.244053,0 -3.244053,-2.36729 0,-1.88505 2.0165735,-5.21678 1.1398024,-1.79739 3.2440534,-3.33173 2.10425,-1.57819 4.033147,-1.57819 1.928896,0 1.928896,1.84122 0,1.92889 -1.534349,2.93718 -1.490511,0.96445 -3.419408,1.57819 -1.8850575,0.5699 -3.3317298,0.5699 z m 0.3507084,-0.87677 q 0.2630314,0 0.9644482,0 0.7452555,0 1.7535422,-0.30687 2.498798,-0.74526 3.244053,-2.80567 0.219193,-0.61374 0.219193,-1.1398 0,-0.5699 -0.350709,-0.7891 -0.350708,-0.26303 -0.613739,-0.26303 -2.849506,0.0438 -5.2167884,5.30447 z" />
        <path
           id="path4596"
           style="font-style:normal;font-variant:normal;font-weight:normal;font-stretch:normal;font-size:43.83855438px;line-height:74.00000095%;font-family:Italianno;-inkscape-font-specification:'Italianno, Normal';text-align:center;writing-mode:lr-tb;text-anchor:middle;fill:#412710;fill-opacity:1"
           d="m 27.38421,517.66102 q 0,2.36728 -2.367282,5.78669 -0.92061,1.22748 -1.665865,1.9289 2.893344,0 5.348303,-3.24405 0.219193,-0.2192 0.219193,0.17535 0,0.35071 -0.175354,0.5699 -2.235766,3.11254 -5.085272,3.11254 -0.394547,0 -0.789094,-0.0438 -2.454959,2.2796 -5.523658,2.2796 -1.797381,0 -1.797381,-1.53435 0,-2.49879 2.411121,-5.83052 1.534349,-2.19193 3.726277,-3.46325 2.323443,-1.44667 3.94547,-1.44667 1.753542,0 1.753542,1.7097 z m -2.104251,0.0438 q 0,-1.05212 -0.789094,-1.05212 -0.263031,0 -1.008287,0.30687 -0.745255,0.26303 -1.885057,1.44667 -1.095964,1.1398 -2.104251,2.93718 -1.885058,3.11254 -1.885058,4.64689 0,1.49051 0.789094,1.49051 0.61374,0 1.358995,-0.39455 0.745256,-0.43838 1.183641,-0.87677 1.358996,-1.44667 2.849506,-3.90163 1.490511,-2.4988 1.490511,-4.60305 z" />
        <path
           id="path4598"
           style="font-style:normal;font-variant:normal;font-weight:normal;font-stretch:normal;font-size:43.83855438px;line-height:74.00000095%;font-family:Italianno;-inkscape-font-specification:'Italianno, Normal';text-align:center;writing-mode:lr-tb;text-anchor:middle;fill:#412710;fill-opacity:1"
           d="m 9.0870923,536.59928 -0.1315156,1.09596 q 0,1.97274 1.2713183,3.02486 1.227479,1.09597 3.02486,1.09597 1.753542,0 3.419407,-0.65758 6.619622,-2.84951 11.134993,-13.76531 0.526063,-1.27132 1.534349,-3.85779 2.235767,-5.78669 3.507085,-8.28549 2.674152,-5.43598 5.962043,-5.43598 0.438386,0 0.789094,0.26303 0.350709,0.2192 0.30687,0.65758 l -0.08768,1.22748 q 0,0.13152 -0.131516,0.13152 -0.08768,0 -0.08768,-0.0438 0,-0.92061 -1.095964,-0.92061 -4.340017,0 -7.189523,10.3459 0.04384,-0.0438 0.789094,-0.7891 0.745256,-0.78909 1.446673,-1.40283 0.701417,-0.61374 1.665865,-1.40283 1.972735,-1.66587 3.463246,-1.66587 0.745255,0 0.745255,0.96445 0,0.21919 -0.04384,0.48222 -0.482224,3.59476 -3.507084,7.23336 -2.981022,3.6386 -6.444267,3.6386 -0.92061,0 -1.052126,-0.13151 -3.901631,11.52954 -10.696607,14.42288 -1.534349,0.65758 -3.287892,0.65758 -1.753542,0 -3.287891,-0.78909 Q 8.429514,541.29 8.429514,537.91443 l 0,-0.74525 q 0,-0.65758 0.5260627,-0.65758 0.1315156,0 0.1315156,0.0877 z M 37.275283,518.27476 q 0,-0.5699 -0.394547,-0.5699 -0.657578,0 -2.235766,1.44667 -1.53435,1.40284 -2.411121,2.45496 -3.068699,3.6386 -3.068699,5.30447 0,0.87677 1.095964,0.87677 1.095964,0 2.630313,-1.53435 1.139803,-1.05213 2.761829,-3.85779 1.622027,-2.84951 1.622027,-4.12083 z" />
        <path
           id="path4600"
           style="font-style:normal;font-variant:normal;font-weight:normal;font-stretch:normal;font-size:43.83855438px;line-height:74.00000095%;font-family:Italianno;-inkscape-font-specification:'Italianno, Normal';text-align:center;writing-mode:lr-tb;text-anchor:middle;fill:#412710;fill-opacity:1"
           d="m 55.242923,501.2654 q 1.095964,0 1.095964,1.40284 0,2.32344 -3.813954,7.49639 -3.244053,4.51537 -9.030742,9.73216 -1.139803,2.10425 -1.709704,4.51537 -0.131516,0.48222 -0.131516,0.92061 0,1.7097 1.622027,1.7097 0.263031,0 0.569901,-0.0438 1.841219,-0.3507 5.874366,-5.3483 0.08768,0.0877 0.08768,0.39455 0,0.26303 -1.139803,1.7097 -1.139802,1.40284 -1.709703,1.97274 -2.498798,2.49879 -4.515372,2.49879 -2.279604,0 -2.279604,-2.19192 0,-1.75355 1.402833,-4.82224 l -1.841219,2.01657 q -0.30687,0.43838 -0.30687,-0.0877 0,-0.35071 0.30687,-0.74525 0.350709,-0.43839 1.358995,-1.62203 1.008287,-1.18364 1.490511,-1.75354 0.61374,-1.1398 2.498798,-4.95376 3.989308,-8.06629 5.962043,-10.69661 0.482224,-0.17535 1.885058,-1.1398 1.446672,-0.96445 2.323443,-0.96445 z m -3.463245,8.46084 q 3.112537,-5.08527 3.112537,-7.14568 0,-0.52606 -0.394547,-0.52606 -1.446672,0 -5.699012,7.62791 -3.594762,6.4881 -4.55921,8.46084 4.340017,-3.59476 7.540232,-8.41701 z" />
        <path
           id="path4602"
           style="font-style:normal;font-variant:normal;font-weight:normal;font-stretch:normal;font-size:43.83855438px;line-height:74.00000095%;font-family:Italianno;-inkscape-font-specification:'Italianno, Normal';text-align:center;writing-mode:lr-tb;text-anchor:middle;fill:#412710;fill-opacity:1"
           d="m 51.115248,522.92165 q -0.657578,1.7097 -0.657578,3.20021 0,1.44668 1.79738,1.44668 0.657579,0 1.709704,-0.39455 1.709704,-0.5699 3.550923,-2.19193 1.841219,-1.62203 3.02486,-3.15637 0.131516,0.13151 0.131516,0.3507 0,0.2192 -0.30687,0.65758 -1.622027,2.23577 -4.033147,3.94547 -2.411121,1.70971 -4.909918,1.70971 -3.244053,0 -3.244053,-2.36729 0,-1.88505 2.016573,-5.21678 1.139803,-1.79739 3.244053,-3.33173 2.104251,-1.57819 4.033147,-1.57819 1.928897,0 1.928897,1.84122 0,1.92889 -1.53435,2.93718 -1.49051,0.96445 -3.419407,1.57819 -1.885058,0.5699 -3.33173,0.5699 z m 0.350708,-0.87677 q 0.263032,0 0.964449,0 0.745255,0 1.753542,-0.30687 2.498797,-0.74526 3.244053,-2.80567 0.219193,-0.61374 0.219193,-1.1398 0,-0.5699 -0.350709,-0.7891 -0.350708,-0.26303 -0.61374,-0.26303 -2.849506,0.0438 -5.216788,5.30447 z" />
        <path
           id="path4604"
           style="font-style:normal;font-variant:normal;font-weight:normal;font-stretch:normal;font-size:43.83855438px;line-height:74.00000095%;font-family:Italianno;-inkscape-font-specification:'Italianno, Normal';text-align:center;writing-mode:lr-tb;text-anchor:middle;fill:#412710;fill-opacity:1"
           d="m 78.072534,517.66102 q 0,2.36728 -2.367282,5.78669 -0.92061,1.22748 -1.665865,1.9289 2.893344,0 5.348303,-3.24405 0.219193,-0.2192 0.219193,0.17535 0,0.35071 -0.175354,0.5699 -2.235766,3.11254 -5.085272,3.11254 -0.394547,0 -0.789094,-0.0438 -2.454959,2.2796 -5.523658,2.2796 -1.797381,0 -1.797381,-1.53435 0,-2.49879 2.411121,-5.83052 1.534349,-2.19193 3.726277,-3.46325 2.323443,-1.44667 3.94547,-1.44667 1.753542,0 1.753542,1.7097 z m -2.104251,0.0438 q 0,-1.05212 -0.789094,-1.05212 -0.263031,0 -1.008287,0.30687 -0.745255,0.26303 -1.885057,1.44667 -1.095964,1.1398 -2.104251,2.93718 -1.885058,3.11254 -1.885058,4.64689 0,1.49051 0.789094,1.49051 0.61374,0 1.358995,-0.39455 0.745256,-0.43838 1.183641,-0.87677 1.358995,-1.44667 2.849506,-3.90163 1.490511,-2.4988 1.490511,-4.60305 z" />
        <path
           id="path4606"
           style="font-style:normal;font-variant:normal;font-weight:normal;font-stretch:normal;font-size:43.83855438px;line-height:74.00000095%;font-family:Italianno;-inkscape-font-specification:'Italianno, Normal';text-align:center;writing-mode:lr-tb;text-anchor:middle;fill:#412710;fill-opacity:1"
           d="m 96.775164,502.88743 q -0.657578,-0.26303 -1.315157,-0.26303 -0.657578,0 -1.271318,0.13151 -2.279605,0.48223 -4.646887,4.82225 -0.613739,1.09596 -3.857792,8.59235 l 3.156376,0 q 0.876771,0 1.271318,-0.0877 0,0.30687 -0.657579,0.56991 -1.227479,0.65757 -3.6386,0.65757 -0.30687,0 -0.61374,0 -2.586474,6.48811 -3.507084,8.50468 -0.920609,1.97274 -1.753542,3.46325 -0.832933,1.49051 -2.104251,3.15638 -1.227479,1.66586 -2.498797,2.8495 -1.315157,1.18364 -3.02486,1.97274 -1.709704,0.78909 -3.463246,0.78909 -3.6386,0 -4.427694,-2.19193 -0.08768,-0.30687 -0.08768,-0.52606 0,-0.17535 0.04384,-0.43839 0.04384,-0.21919 0.08768,-0.43838 0.04384,-0.17536 0.175354,-0.5699 0.131516,-0.39455 0.175355,-0.5699 0.04384,-0.13152 0.263031,-0.61374 0.175354,-0.48223 0.263031,-0.65758 0.04384,-0.17536 0.219193,-0.21919 0.131516,-0.0438 0.219193,0.0877 0.08768,0.13152 -0.08768,0.5699 -0.219193,0.48223 -0.219193,1.09597 0,0.61374 0.219193,1.1398 0.876771,2.10425 4.033147,2.36728 0.175354,0 0.394547,0 1.183641,0 2.279605,-0.61374 2.981021,-1.53435 5.699012,-6.61962 1.315156,-2.45496 2.893344,-6.75114 1.578188,-4.34001 2.148089,-5.78669 l -1.008286,0 q -0.04384,0 -0.964449,0.13152 l -0.08768,-0.0438 q 0.08768,-0.43838 0.832933,-0.83293 0.745255,-0.39455 1.227479,-0.39455 l 0.526063,0 q 4.603048,-10.69661 8.417003,-13.23924 2.235766,-1.57819 4.953756,-1.57819 0.569901,0 1.052125,0.35071 0.482225,0.35071 0.438386,0.96445 l -0.131516,1.57819 q 0,0.0877 -0.131515,0.13151 -0.131516,0.0438 -0.175355,-0.0438 -0.175354,-1.05212 -1.315156,-1.44667 z" />
      </g>
      <g
         transform="matrix(0.75700005,0,0,-0.75700005,607.02188,1869.895)"
         id="g6142">
        <path
           inkscape:connector-curvature="0"
           id="path6144"
           style="fill:#dca749;fill-opacity:1;fill-rule:nonzero;stroke:none"
           d="m -607.15488,1760.8804 c -17.83194,-2.9461 -35.0743,-4.8638 -51.03102,-6.0741 -140.5024,-13.3127 -233.69047,6.0741 -233.69047,6.0741 0,0 -12.7794,-28.214 0,-57.5813 0,0 78.54643,9.2099 142.36377,7.4836 63.81736,1.7263 142.35772,-7.4836 142.35772,-7.4836 12.78632,29.3673 0,57.5813 0,57.5813" />
        <path
           inkscape:connector-curvature="0"
           id="path6146"
           style="fill:#603a18;fill-opacity:1;fill-rule:nonzero;stroke:none"
           d="m -543.2565,1740.2156 c -2.44142,0 -4.63524,-1.0467 -6.17456,-2.7098 -2.29338,10.7968 -10.92842,18.8267 -21.23954,18.8267 -8.7398,0 -16.27878,-5.7677 -19.77298,-14.0989 l -10.19944,0 0,16.4433 c 0,2.8994 -2.35052,5.25 -5.24648,5.25 -2.90114,0 -5.25166,-2.3506 -5.25166,-5.25 l 0,-53.1781 c 0,-2.902 2.35052,-5.249 5.25166,-5.249 2.89596,0 5.24648,2.347 5.24648,5.249 l 0,15.394 10.39252,0 c 3.57296,-8.0922 10.9968,-13.6581 19.5799,-13.6581 10.31112,0 18.94702,8.0333 21.2404,18.831 1.53846,-1.6631 3.73228,-2.7107 6.1737,-2.7107 4.65776,0 8.4238,3.7773 8.4238,8.4307 0,4.6569 -3.76604,8.4299 -8.4238,8.4299" />
        <path
           inkscape:connector-curvature="0"
           id="path6148"
           style="fill:#603a18;fill-opacity:1;fill-rule:nonzero;stroke:none"
           d="m -894.21417,1763.9266 c -2.89594,0 -5.24647,-2.3505 -5.24647,-5.2491 l 0,-16.4441 -10.20464,0 c -3.49159,8.3311 -11.02712,14.0997 -19.76691,14.0997 -10.31026,0 -18.9479,-8.0282 -21.24561,-18.8224 -1.53931,1.6596 -3.73226,2.7046 -6.17542,2.7046 -4.65083,0 -8.42379,-3.7729 -8.42379,-8.4298 0,-4.6535 3.77296,-8.4299 8.42379,-8.4299 2.44316,0 4.63611,1.0458 6.17542,2.7055 2.29685,-10.796 10.93535,-18.8258 21.24561,-18.8258 8.58309,0 16.00434,5.565 19.57557,13.6572 l 10.39598,0 0,-15.3931 c 0,-2.9028 2.35053,-5.2499 5.24647,-5.2499 2.90201,0 5.25254,2.3471 5.25254,5.2499 l 0,53.1781 c 0,2.8986 -2.35053,5.2491 -5.25254,5.2491" />
        <path
           inkscape:connector-curvature="0"
           id="path6150"
           style="fill:#f5f6f6;fill-opacity:1;fill-rule:nonzero;stroke:none"
           d="m -939.4042,1739.7514 c 0.019,2.5324 1.135,4.7323 2.88296,6.4941 1.74276,1.7358 4.43179,2.992 7.32082,2.8855 2.88988,-0.075 5.48455,-1.5003 7.10784,-3.3219 1.64234,-1.8492 2.58254,-4.0422 2.63189,-6.552 -2.41892,0.6571 -4.26817,1.4224 -5.9105,1.8986 -1.64147,0.4978 -2.91413,0.6926 -4.06732,0.7368 -1.14712,0.041 -2.4319,-0.069 -4.07424,-0.4641 -1.66051,-0.3827 -3.50976,-0.9904 -5.89145,-1.677" />
        <path
           inkscape:connector-curvature="0"
           id="path6152"
           style="fill:#f5f6f6;fill-opacity:1;fill-rule:nonzero;stroke:none"
           d="m -561.04334,1724.6751 c -0.02,-2.5297 -1.14106,-4.7296 -2.88382,-6.4905 -1.7419,-1.7359 -4.43094,-2.993 -7.31996,-2.8865 -2.88988,0.075 -5.4906,1.5012 -7.1139,3.3219 -1.63628,1.8493 -2.58254,4.0431 -2.6267,6.5529 2.41978,-0.658 4.26904,-1.4224 5.9105,-1.8986 1.64234,-0.4978 2.90808,-0.6926 4.06126,-0.7367 1.15318,-0.041 2.4319,0.068 4.0803,0.4631 1.65446,0.3836 3.50978,0.9913 5.89232,1.6744" />
        <path
           inkscape:connector-curvature="0"
           id="path6154"
           style="fill:#f5f6f6;fill-opacity:1;fill-rule:nonzero;stroke:none"
           d="m -539.282,1731.203 c -0.006,-1.0943 -0.4952,-2.0467 -1.24754,-2.8077 -0.7584,-0.7523 -1.91766,-1.2977 -3.17126,-1.2501 -1.24756,0.031 -2.3765,0.6484 -3.07776,1.438 -0.70818,0.7982 -1.1151,1.748 -1.14106,2.8354 1.05276,-0.2849 1.84924,-0.6173 2.5635,-0.8234 0.70904,-0.213 1.25966,-0.2987 1.75574,-0.3168 0.50128,-0.019 1.05276,0.029 1.767,0.1999 0.72118,0.1663 1.51682,0.4295 2.55138,0.7247" />
        <path
           inkscape:connector-curvature="0"
           id="path6156"
           style="fill:#f5f6f6;fill-opacity:1;fill-rule:nonzero;stroke:none"
           d="m -953.36995,1731.203 c -0.007,-1.0943 -0.49521,-2.0467 -1.24755,-2.8077 -0.7584,-0.7523 -1.91764,-1.2977 -3.17126,-1.2501 -1.24755,0.031 -2.37649,0.6484 -3.07775,1.438 -0.70819,0.7982 -1.1151,1.748 -1.14107,2.8354 1.05276,-0.2849 1.84925,-0.6173 2.5635,-0.8234 0.70905,-0.213 1.25967,-0.2987 1.75575,-0.3168 0.50127,-0.019 1.05276,0.029 1.76701,0.1999 0.72117,0.1663 1.5168,0.4295 2.55137,0.7247" />
      </g>
    </g>
  </g>
</svg>
